<?xml version="1.0" encoding="UTF-8"?>
<svg width="48px" height="28px" viewBox="0 0 48 28" version="1.1" xmlns="http://www.w3.org/2000/svg" xmlns:xlink="http://www.w3.org/1999/xlink">
    <title>add-money</title>
    <g id="Page-1" stroke="none" stroke-width="1" fill="none" fill-rule="evenodd">
        <g id="add-money" fill="#DD0F28" fill-rule="nonzero">
            <path d="M45,0 L3,0 C1.34314575,0 0,1.34314575 0,3 L0,25 C0,26.6568542 1.34314575,28 3,28 L45,28 C46.6568542,28 48,26.6568542 48,25 L48,3 C48,1.34314575 46.6568542,0 45,0 Z M45,26 L3,26 C2.44771525,26 2,25.5522847 2,25 L2,3 C2,2.44771525 2.44771525,2 3,2 L45,2 C45.5522847,2 46,2.44771525 46,3 L46,25 C46,25.5522847 45.5522847,26 45,26 Z" id="Shape"></path>
            <path d="M6,17.083 L6,10.917 C8.51603145,10.4868608 10.4868608,8.51603145 10.917,6 L15,6 L15,4 L10,4 C9.44771525,4 9,4.44771525 9,5 C9,7.209139 7.209139,9 5,9 C4.44771525,9 4,9.44771525 4,10 L4,18 C4,18.5522847 4.44771525,19 5,19 C7.209139,19 9,20.790861 9,23 C9,23.5522847 9.44771525,24 10,24 L15,24 L15,22 L10.917,22 C10.4868608,19.4839686 8.51603145,17.5131392 6,17.083 Z" id="Path"></path>
            <path d="M43,9 C40.790861,9 39,7.209139 39,5 C39,4.44771525 38.5522847,4 38,4 L33,4 L33,6 L37.083,6 C37.5131392,8.51603145 39.4839686,10.4868608 42,10.917 L42,17.083 C39.4839686,17.5131392 37.5131392,19.4839686 37.083,22 L33,22 L33,24 L38,24 C38.5522847,24 39,23.5522847 39,23 C39,20.790861 40.790861,19 43,19 C43.5522847,19 44,18.5522847 44,18 L44,10 C44,9.44771525 43.5522847,9 43,9 Z" id="Path"></path>
            <rect id="Rectangle" x="4" y="4" width="2" height="2"></rect>
            <rect id="Rectangle" x="42" y="4" width="2" height="2"></rect>
            <rect id="Rectangle" x="42" y="22" width="2" height="2"></rect>
            <rect id="Rectangle" x="4" y="22" width="2" height="2"></rect>
            <path d="M24,4 C18.4771525,4 14,8.4771525 14,14 C14,19.5228475 18.4771525,24 24,24 C29.5228475,24 34,19.5228475 34,14 C33.9939376,8.47966557 29.5203344,4.00606237 24,4 Z M24,22 C19.581722,22 16,18.418278 16,14 C16,9.581722 19.581722,6 24,6 C28.418278,6 32,9.581722 32,14 C31.9950401,18.4162219 28.4162219,21.9950401 24,22 L24,22 Z" id="Shape"></path>
            <g id="Group-21" transform="translate(21.000000, 9.000000)">
                <path d="M5.86227963,2.29061509 C5.5697078,1.95707179 5.03592824,1.90252948 4.66970433,2.1691579 C4.30359355,2.43568322 4.24385731,2.9223368 4.53642915,3.2559832 L5.38744437,4.22671275 L-1.15147379,4.22671275 C-1.62019967,4.22671275 -2,4.5728348 -2,5 C-2,5.42715928 -1.62019967,5.77328133 -1.15147379,5.77328133 L5.38744437,5.77328133 L4.53642915,6.74401088 C4.24385731,7.07765728 4.30348042,7.56431086 4.66970433,7.83083618 C5.03819098,8.09901117 5.57174426,8.04086019 5.86227963,7.70937899 L7.81434247,5.48262954 C8.06188584,5.20032922 8.06188584,4.79956175 7.81434247,4.51726143 L5.86227963,2.29061509 Z" id="Path-Copy-3" transform="translate(3.000000, 5.000000) scale(-1, 1) rotate(-270.000000) translate(-3.000000, -5.000000) "></path>
            </g>
        </g>
    </g>
</svg>