<?xml version="1.0" encoding="UTF-8"?>
<svg width="181px" height="181px" viewBox="0 0 181 181" version="1.1" xmlns="http://www.w3.org/2000/svg" xmlns:xlink="http://www.w3.org/1999/xlink">
    <title>bank-receive</title>
    <g id="Page-1" stroke="none" stroke-width="1" fill="none" fill-rule="evenodd">
        <g id="bank-receive">
            <circle id="Oval" fill="#F1F1F1" cx="90.5" cy="90.5" r="90.5"></circle>
            <g id="Group-17" transform="translate(47.000000, 37.000000)" fill-rule="nonzero">
                <g id="bank-copy-2" fill="#A0A0A0">
                    <path d="M89.9975367,79.4460916 L89.9975367,90.0010523 L0.00351562491,90.0010523 L0.00351562491,79.4460916 L89.9975367,79.4460916 Z M18.5125776,38.8573232 L18.5125776,74.171248 L7.91718729,74.171248 L7.91718729,38.8573232 L18.5125776,38.8573232 Z M39.7033583,38.8573232 L39.7033583,74.171248 L29.107968,74.171248 L29.107968,38.8573232 L39.7033583,38.8573232 Z M60.894139,38.8573232 L60.894139,74.171248 L50.2987487,74.171248 L50.2987487,38.8573232 L60.894139,38.8573232 Z M82.0831619,38.8573232 L82.0831619,74.171248 L71.4877715,74.171248 L71.4877715,38.8573232 L82.0831619,38.8573232 Z M89.9975367,23.0257611 L89.9975367,33.5807218 L0.00351562491,33.5807218 L0.00351562491,23.0257611 L89.9975367,23.0257611 Z M45.0005262,0 L87.8853492,17.7530269 L2.11570307,17.7530269 L45.0005262,0 Z" id="Combined-Shape"></path>
                </g>
                <g id="down-arrow-copy-2" transform="translate(75.199999, 84.699997) rotate(-90.000000) translate(-75.199999, -84.699997) translate(46.199999, 55.699997)">
                    <path d="M28.6639843,-1.99999872 C37.1264435,-1.99043846 44.7865584,1.44322892 50.3334333,6.99010388 C55.8803136,12.5369842 59.3139506,20.1970758 59.3234496,28.6617248 C59.3234496,37.1287466 55.8915281,44.7941771 50.3428526,50.3428526 C44.7941771,55.8915281 37.1287466,59.3234496 28.6617248,59.3234496 C20.194703,59.3234496 12.5292725,55.8915281 6.98059701,50.3428526 C1.43192153,44.7941771 -2,37.1287466 -2,28.6617248 C-2,20.194703 1.43192153,12.5292725 6.98059701,6.98059701 C12.5292725,1.43192153 20.194703,-2 28.6639843,-1.99999872 Z" id="Path" stroke="#FFFFFF" stroke-width="4" fill="#29B57B"></path>
                    <g id="right-arrow" transform="translate(29.160824, 28.876288) rotate(-270.000000) translate(-29.160824, -28.876288) translate(12.160824, 15.876288)" fill="#FFFFFF">
                        <path d="M32.7981517,10.3972912 L22.2208324,0.820341998 C20.9177067,-0.358424905 18.9101315,-0.256293477 17.7381645,1.05864866 C16.5661975,2.36720759 16.6719707,4.38643104 17.9750964,5.56519794 L22.4027623,9.57598425 L3.17319579,9.57598425 C1.41947625,9.57598425 0,11.0036965 0,12.7675914 C0,14.5314863 1.41947625,15.9591985 3.17319579,15.9591985 L22.4069932,15.9591985 L17.972981,19.9699848 C16.6698552,21.1508795 16.564082,23.1679752 17.736049,24.4765341 C18.3643418,25.1765599 19.2295665,25.5340199 20.0969067,25.5340199 C20.8542427,25.5340199 21.6136943,25.2637972 22.2187169,24.7148408 L32.7960362,15.1421471 C33.4645228,14.5378695 33.8474218,13.6740078 33.8474218,12.7697191 C33.8474218,11.8654304 33.4645228,11.0015688 32.7981517,10.3972912 Z" id="Path" transform="translate(16.923711, 12.767010) scale(-1, 1) translate(-16.923711, -12.767010) "></path>
                    </g>
                </g>
            </g>
        </g>
    </g>
</svg>