<?xml version="1.0" encoding="UTF-8"?>
<svg width="181px" height="181px" viewBox="0 0 181 181" version="1.1" xmlns="http://www.w3.org/2000/svg" xmlns:xlink="http://www.w3.org/1999/xlink">
    <title>bank-waiting</title>
    <g id="Page-1" stroke="none" stroke-width="1" fill="none" fill-rule="evenodd">
        <g id="bank-waiting">
            <circle id="Oval" fill="#F1F1F1" cx="90.5" cy="90.5" r="90.5"></circle>
            <g id="Group-19" transform="translate(46.000000, 36.000000)">
                <g id="bank" fill="#B6B6B6" fill-rule="nonzero">
                    <path d="M91.8893792,81.1161318 L91.8893792,91.8929688 L0.00358952703,91.8929688 L0.00358952703,81.1161318 L91.8893792,81.1161318 Z M18.9017314,39.6741448 L18.9017314,75.7304054 L8.08361486,75.7304054 L8.08361486,39.6741448 L18.9017314,39.6741448 Z M40.5379645,39.6741448 L40.5379645,75.7304054 L29.719848,75.7304054 L29.719848,39.6741448 L40.5379645,39.6741448 Z M62.1741976,39.6741448 L62.1741976,75.7304054 L51.3560811,75.7304054 L51.3560811,39.6741448 L62.1741976,39.6741448 Z M83.808636,39.6741448 L83.808636,75.7304054 L72.9905194,75.7304054 L72.9905194,39.6741448 L83.808636,39.6741448 Z M91.8893792,23.5097867 L91.8893792,34.2866237 L0.00358952703,34.2866237 L0.00358952703,23.5097867 L91.8893792,23.5097867 Z M45.9464844,0 L89.7327914,18.1262141 L2.16017736,18.1262141 L45.9464844,0 Z" id="Combined-Shape"></path>
                </g>
                <g id="down-arrow" transform="translate(75.689189, 81.932432) rotate(-90.000000) translate(-75.689189, -81.932432) translate(46.189189, 52.432432)">
                    <path d="M29.309607,-1.99999872 C37.9502676,-1.99023714 45.7716882,1.51573592 51.4353685,7.17941623 C57.0990542,12.8431019 60.6049961,20.6644986 60.6146951,29.3073476 C60.6146951,37.9526536 57.11051,45.7794898 51.4449999,51.4449999 C45.7794898,57.11051 37.9526536,60.6146951 29.3073476,60.6146951 C20.6620415,60.6146951 12.8352053,57.11051 7.16969522,51.4449999 C1.5041851,45.7794898 -2,37.9526536 -2,29.3073476 C-2,20.6620415 1.5041851,12.8352053 7.16969522,7.16969522 C12.8352053,1.5041851 20.6620415,-2 29.309607,-1.99999872 Z" id="Path" stroke="#FFFFFF" stroke-width="4" fill="#FFBF00" fill-rule="nonzero"></path>
                    <path d="M45.0362162,26.0421622 C46.355729,26.0421622 47.4254054,27.1118386 47.4254054,28.4313514 C47.4254054,29.7508641 46.355729,30.8205405 45.0362162,30.8205405 L27.8236449,30.8201622 L20.5601481,41.1941348 C19.8033067,42.2750164 18.3135379,42.5377028 17.2326563,41.7808614 C16.1517747,41.02402 15.8890883,39.5342512 16.6459297,38.4533696 L24.3885915,27.3957026 C24.5729627,27.1323932 24.8008288,26.9176387 25.0556829,26.7543498 C25.4894283,26.3151815 26.0922901,26.0421622 26.7589189,26.0421622 L45.0362162,26.0421622 Z" id="Combined-Shape" fill="#FFFFFF"></path>
                </g>
            </g>
        </g>
    </g>
</svg>