<?xml version="1.0" encoding="UTF-8"?>
<svg width="48px" height="28px" viewBox="0 0 48 28" version="1.1" xmlns="http://www.w3.org/2000/svg" xmlns:xlink="http://www.w3.org/1999/xlink">
    <title>convert</title>
    <g id="Page-1" stroke="none" stroke-width="1" fill="none" fill-rule="evenodd">
        <g id="convert" fill="#DD0F28" fill-rule="nonzero">
            <path d="M45,0 L3,0 C1.34314575,0 0,1.34314575 0,3 L0,25 C0,26.6568542 1.34314575,28 3,28 L45,28 C46.6568542,28 48,26.6568542 48,25 L48,3 C48,1.34314575 46.6568542,0 45,0 Z M45,26 L3,26 C2.44771525,26 2,25.5522847 2,25 L2,3 C2,2.44771525 2.44771525,2 3,2 L45,2 C45.5522847,2 46,2.44771525 46,3 L46,25 C46,25.5522847 45.5522847,26 45,26 Z" id="Shape"></path>
            <path d="M6,17.083 L6,10.917 C8.51603145,10.4868608 10.4868608,8.51603145 10.917,6 L15,6 L15,4 L10,4 C9.44771525,4 9,4.44771525 9,5 C9,7.209139 7.209139,9 5,9 C4.44771525,9 4,9.44771525 4,10 L4,18 C4,18.5522847 4.44771525,19 5,19 C7.209139,19 9,20.790861 9,23 C9,23.5522847 9.44771525,24 10,24 L15,24 L15,22 L10.917,22 C10.4868608,19.4839686 8.51603145,17.5131392 6,17.083 Z" id="Path"></path>
            <path d="M43,9 C40.790861,9 39,7.209139 39,5 C39,4.44771525 38.5522847,4 38,4 L33,4 L33,6 L37.083,6 C37.5131392,8.51603145 39.4839686,10.4868608 42,10.917 L42,17.083 C39.4839686,17.5131392 37.5131392,19.4839686 37.083,22 L33,22 L33,24 L38,24 C38.5522847,24 39,23.5522847 39,23 C39,20.790861 40.790861,19 43,19 C43.5522847,19 44,18.5522847 44,18 L44,10 C44,9.44771525 43.5522847,9 43,9 Z" id="Path"></path>
            <rect id="Rectangle" x="4" y="4" width="2" height="2"></rect>
            <rect id="Rectangle" x="42" y="4" width="2" height="2"></rect>
            <rect id="Rectangle" x="42" y="22" width="2" height="2"></rect>
            <rect id="Rectangle" x="4" y="22" width="2" height="2"></rect>
            <path d="M24,4 C18.4771525,4 14,8.4771525 14,14 C14,19.5228475 18.4771525,24 24,24 C29.5228475,24 34,19.5228475 34,14 C33.9939376,8.47966557 29.5203344,4.00606237 24,4 Z M24,22 C19.581722,22 16,18.418278 16,14 C16,9.581722 19.581722,6 24,6 C28.418278,6 32,9.581722 32,14 C31.9950401,18.4162219 28.4162219,21.9950401 24,22 L24,22 Z" id="Shape"></path>
            <g id="Group-21" transform="translate(18.000000, 9.000000)">
                <path d="M10.1343531,0.264195532 C9.87901771,-0.0390256419 9.41317374,-0.0886095681 9.09356014,0.153779908 C8.77404528,0.396075654 8.72191183,0.838488001 8.97724725,1.14180291 L9.71995145,2.02428431 L4.01325924,2.02428431 C3.60418938,2.02428431 3.27272727,2.33894072 3.27272727,2.72727004 C3.27272727,3.11559935 3.60418938,3.43025576 4.01325924,3.43025576 L9.71995145,3.43025576 L8.97724725,4.31273717 C8.72191183,4.61605207 8.77394655,5.05846442 9.09356014,5.30076016 C9.41514849,5.54455561 9.88079499,5.49169109 10.1343531,5.19034454 L11.8379716,3.16602686 C12.0540095,2.9093902 12.0540095,2.54505614 11.8379716,2.28841948 L10.1343531,0.264195532 Z" id="Path-Copy-3"></path>
                <path d="M6.86162586,4.6278319 C6.60629044,4.32461072 6.14044647,4.2750268 5.82083287,4.51741627 C5.50131801,4.75971202 5.44918456,5.20212436 5.70451998,5.50543927 L6.44722417,6.38792068 L0.740531965,6.38792068 C0.331462108,6.38792068 0,6.70257709 0,7.0909064 C0,7.47923571 0.331462108,7.79389212 0.740531965,7.79389212 L6.44722417,7.79389212 L5.70451998,8.67637353 C5.44918456,8.97968843 5.50121927,9.42210078 5.82083287,9.66439653 C6.14242122,9.90819198 6.60806772,9.85532745 6.86162586,9.5539809 L8.56524433,7.52966322 C8.78128219,7.27302657 8.78128219,6.9086925 8.56524433,6.65205585 L6.86162586,4.6278319 Z" id="Path-Copy-4" transform="translate(4.363636, 7.090909) scale(-1, 1) translate(-4.363636, -7.090909) "></path>
            </g>
        </g>
    </g>
</svg>