<?xml version="1.0" encoding="UTF-8"?>
<svg width="181px" height="181px" viewBox="0 0 181 181" version="1.1" xmlns="http://www.w3.org/2000/svg" xmlns:xlink="http://www.w3.org/1999/xlink">
    <title>conversion fee</title>
    <g id="Page-1" stroke="none" stroke-width="1" fill="none" fill-rule="evenodd">
        <g id="conversion-fee">
            <circle id="Oval" fill="#F1F1F1" cx="90.5" cy="90.5" r="90.5"></circle>
            <g id="discount-symbol" transform="translate(49.000000, 46.000000)" fill="#B1B1B1" fill-rule="nonzero">
                <path d="M65.294601,48.4040007 C76.4108011,48.4040007 85.4540013,57.4470009 85.4540013,68.560401 C85.4540013,79.6770012 76.4108011,88.7232013 65.294601,88.7232013 C54.1780008,88.7232013 45.1348007,79.6768012 45.1348007,68.560401 C45.1348007,57.4472009 54.1780008,48.4040007 65.294601,48.4040007 Z M58.5334009,4.68800007 C59.9922009,2.07020003 63.2992009,1.13420002 65.915401,2.58500004 C68.535001,4.04560006 69.475201,7.35100011 68.016601,9.96900015 L68.016601,9.96900015 L26.8626004,83.8658012 C25.8700004,85.6490013 24.0214004,86.6530013 22.1160003,86.6530013 C21.2228003,86.6530013 20.3164003,86.4312013 19.4802003,85.9684013 C16.8612003,84.5078013 15.9204002,81.2024012 17.3792003,78.5846012 L17.3792003,78.5846012 Z M65.294601,58.4186009 C59.7004009,58.4186009 55.1494008,62.9696009 55.1494008,68.560401 C55.1494008,74.1574011 59.7004009,78.7084012 65.294601,78.7084012 C70.8882011,78.7084012 75.4394011,74.1574011 75.4394011,68.560401 C75.4394011,62.9696009 70.8884011,58.4186009 65.294601,58.4186009 Z M20.2288003,-2.23820962e-13 C31.3450005,-2.23820962e-13 40.3898006,9.04640013 40.3898006,20.1626003 C40.3898006,31.2760005 31.3450005,40.3190006 20.2288003,40.3190006 C9.11240014,40.3190006 0.069200001,31.2758005 0.069200001,20.1626003 C0.069200001,9.04640013 9.11240014,-2.23820962e-13 20.2288003,-2.23820962e-13 Z M20.2288003,10.0146001 C14.6346002,10.0146001 10.0838002,14.5654002 10.0838002,20.1626003 C10.0838002,25.7536004 14.6346002,30.3044005 20.2288003,30.3044005 C25.8226004,30.3044005 30.3752005,25.7534004 30.3752005,20.1626003 C30.3752005,14.5654002 25.8226004,10.0146001 20.2288003,10.0146001 Z" id="Combined-Shape"></path>
            </g>
        </g>
    </g>
</svg>