<?xml version="1.0" encoding="UTF-8"?>
<svg width="181px" height="181px" viewBox="0 0 181 181" version="1.1" xmlns="http://www.w3.org/2000/svg" xmlns:xlink="http://www.w3.org/1999/xlink">
    <title>exchange</title>
    <g id="Page-1" stroke="none" stroke-width="1" fill="none" fill-rule="evenodd">
        <g id="exchange">
            <circle id="Oval" fill="#F1F1F1" cx="90.5" cy="90.5" r="90.5"></circle>
            <g transform="translate(35.000000, 55.000000)" fill="#B6B6B6" fill-rule="nonzero" id="Combined-Shape">
                <path d="M102.080006,40.7998588 C105.155128,40.7998588 107.648007,43.2927374 107.648007,46.3678591 C107.648007,49.4429808 105.155128,51.9358594 102.080006,51.9358594 L19.0103132,51.9358594 L28.0652737,60.990588 C30.239769,63.1650834 30.239769,66.690637 28.0652736,68.8651324 C25.8907782,71.0396277 22.3652247,71.0396278 20.1907292,68.8651325 L1.6307281,50.3051313 C0.586463423,49.2609205 -0.000202887332,47.8446343 -0.000202887332,46.3678591 C-0.000202887332,44.8910839 0.586463423,41.8440696 1.6307281,40.7998588 L102.080006,40.7998588 Z M91.1692775,1.6308715 L109.729279,20.1908726 C110.773543,21.2350835 111.36021,22.6513696 111.36021,24.1281449 C111.36021,25.6049201 110.773543,28.6519343 109.729279,29.6961452 L9.28000056,29.6961452 C6.20487889,29.6961452 3.71200023,27.2032665 3.71200023,24.1281449 C3.71200023,21.0530232 6.20487889,18.5601445 9.28000056,18.5601445 L92.3496936,18.5601445 L83.2947331,9.50541598 C81.1202377,7.33092056 81.1202377,3.80536695 83.2947331,1.63087156 C85.4692285,-0.54362383 88.9947821,-0.543623857 91.1692775,1.6308715 Z"></path>
            </g>
        </g>
    </g>
</svg>