<svg xmlns="http://www.w3.org/2000/svg" width="110" height="103.689" viewBox="0 0 110 103.689">
  <g id="Group_635" data-name="Group 635" transform="translate(-905 -229.996)">
    <path id="Path_4104" data-name="Path 4104" d="M66.537,379.4a9.748,9.748,0,0,0-5.2-6.781l-11.4-4.865v-.3a20.3,20.3,0,0,1-17.191,0v.3l-11.4,4.865A9.751,9.751,0,0,0,16,380.533v12.391H66.7V380.533a9.038,9.038,0,0,0-.163-1.134Z" transform="translate(890.342 -60.582)" fill="#fb4828"/>
    <path id="Path_4105" data-name="Path 4105" d="M28.066,372.618l8.8-3.756a20.259,20.259,0,0,1-4.109-1.407v.3l-11.4,4.865A9.751,9.751,0,0,0,16,380.533v12.391h6.707V380.533a9.751,9.751,0,0,1,5.359-7.915Z" transform="translate(890.341 -60.581)" opacity="0.15"/>
    <path id="Path_4106" data-name="Path 4106" d="M255.332,53.531v74.4a4.476,4.476,0,0,1-4.472,4.484H198.553a9.772,9.772,0,0,0-5.2-6.8l-7.324-3.134V109.3l0,0a18.162,18.162,0,0,0,4.95-12.49V94.5a4.671,4.671,0,0,0,3.714-5.713,3.506,3.506,0,0,0-3.135-2.677h-.438v-7.1a18.548,18.548,0,0,0-5.089-12.788v-12.7a4.478,4.478,0,0,1,4.472-4.484h11.047v3.58h40.5v-3.58h8.811A4.478,4.478,0,0,1,255.332,53.531Z" transform="translate(758.326 186.407)" fill="#fff4f2"/>
    <circle id="Ellipse_318" data-name="Ellipse 318" cx="13.415" cy="13.415" r="13.415" transform="translate(953.711 249.569)" fill="#49c160"/>
    <path id="Path_4108" data-name="Path 4108" d="M80.131,125.459v.206S64.3,128.455,53.684,119a55.871,55.871,0,0,1-6.555.165l-.494,8.109a.375.375,0,0,1-.546.3L43.9,126.449a1.518,1.518,0,0,1-.818-1.241v-6.826a18.526,18.526,0,0,1,37.051,0Z" transform="translate(869.316 147.008)" fill="#363636"/>
    <path id="Path_4109" data-name="Path 4109" d="M52.978,105.283a18.468,18.468,0,0,1,10.879-5.289A18.529,18.529,0,0,0,43.08,118.382v6.826a1.518,1.518,0,0,0,.818,1.241l2.191,1.125a.375.375,0,0,0,.546-.3S45.672,112.588,52.978,105.283Z" transform="translate(869.316 147.008)" fill="#262626"/>
    <path id="Path_4110" data-name="Path 4110" d="M108.131,332.247v7.872a20.3,20.3,0,0,1-17.191,0v-7.286A18.173,18.173,0,0,0,108.131,332.247Z" transform="translate(832.156 -33.306)" fill="#efc597"/>
    <path id="Path_4111" data-name="Path 4111" d="M95.412,342.153v-5.761a18.043,18.043,0,0,1-4.472-1.525v7.286a20.293,20.293,0,0,0,10.831,1.786,20.279,20.279,0,0,1-6.36-1.786Z" transform="translate(832.156 -35.34)" fill="#d8ad82"/>
    <path id="Path_4112" data-name="Path 4112" d="M59.682,218.276a18.154,18.154,0,0,1-27.294-15.691v-2.3a4.667,4.667,0,0,1-3.716-5.7,3.506,3.506,0,0,1,3.137-2.67l.02,0a1.514,1.514,0,0,0,.78.995l2.191,1.125a.375.375,0,0,0,.546-.3l.494-8.109a55.87,55.87,0,0,0,6.555-.165c10.615,9.46,26.447,6.669,26.447,6.669v-.206h.438a3.5,3.5,0,0,1,3.135,2.67,4.658,4.658,0,0,1-3.714,5.7v2.3a18.084,18.084,0,0,1-4.95,12.455c-.118.13-.244.257-.369.382a18.17,18.17,0,0,1-3.7,2.853Z" transform="translate(880.605 80.617)" fill="#ffd8b7"/>
    <path id="Path_4113" data-name="Path 4113" d="M46.956,241.295a18.156,18.156,0,0,1-10.1-16.276v-2.3a4.667,4.667,0,0,1-3.716-5.7,3.525,3.525,0,0,1,.507-1.145l-1.041-.534a1.514,1.514,0,0,1-.78-.995l-.02,0a3.506,3.506,0,0,0-3.137,2.67,4.659,4.659,0,0,0,3.716,5.7v2.3a18.148,18.148,0,0,0,18.157,18.157,18.343,18.343,0,0,0,2.232-.138A18.049,18.049,0,0,1,46.956,241.295Z" transform="translate(880.612 58.194)" fill="#e8bc9e"/>
    <path id="Path_4114" data-name="Path 4114" d="M255.45,30.637h40.5v7.687h-40.5Z" transform="translate(704.427 200.701)" fill="#fe4b2b"/>
    <g id="Group_451" data-name="Group 451" transform="translate(905 229.996)">
      <path id="Path_4115" data-name="Path 4115" d="M114.187,28.761h-7.471V25.978a1.343,1.343,0,0,0-1.341-1.344h-40.5a1.343,1.343,0,0,0-1.341,1.344v2.782H53.83a5.826,5.826,0,0,0-5.813,5.826v9.687A19.852,19.852,0,0,0,16.055,60.057v6.026a4.8,4.8,0,0,0-3.08,3.421,6.022,6.022,0,0,0,3.677,7.048v1.286a19.563,19.563,0,0,0,10.1,17.12v5.906L16.173,105.39l-.073.034a11.186,11.186,0,0,0-6.1,9.023c0,.037,0,.074,0,.112v12.419a1.343,1.343,0,0,0,1.341,1.344h50.7a1.343,1.343,0,0,0,1.341-1.344v-12.21h50.8A5.826,5.826,0,0,0,120,108.942V34.586a5.826,5.826,0,0,0-5.813-5.826ZM66.219,27.323h37.814v5.016H66.219ZM18.738,60.057a17.183,17.183,0,1,1,34.366,0v6.121c-3.324.36-13.472.9-21.62-4.512,5.6-.748,12.424-2.471,17.486-6.361a1.343,1.343,0,0,0-1.632-2.134C38.13,60.25,21.679,59.5,21.515,59.494a1.344,1.344,0,0,0-1.409,1.261l-.4,6.64-.875-.45a.171.171,0,0,1-.089-.116Zm.6,17.781v-2.3a1.344,1.344,0,0,0-1.11-1.325,3.327,3.327,0,0,1-2.644-4.065,2.094,2.094,0,0,1,1.195-1.454,2.833,2.833,0,0,0,.827.647l2.191,1.127a1.716,1.716,0,0,0,2.5-1.393c0-.009,0-.017,0-.025l.415-6.831c1.1.01,2.79-.008,4.849-.151C38.511,71.405,54.017,68.8,54.68,68.68a1.335,1.335,0,0,0,.4-.141,2.128,2.128,0,0,1,1.642,1.605,3.326,3.326,0,0,1-2.644,4.065,1.344,1.344,0,0,0-1.11,1.325v2.3a16.815,16.815,0,1,1-33.63,0ZM48.017,93.331v8.127l-1.39-.594V94.311Q47.345,93.851,48.017,93.331Zm-4.073,2.418v4.827a19.054,19.054,0,0,1-14.506,0V96.186a19.453,19.453,0,0,0,14.506-.438ZM60.7,125.634H12.683V114.616a8.484,8.484,0,0,1,4.583-6.769l11.171-4.778a21.72,21.72,0,0,0,16.511,0l11.171,4.778a8.483,8.483,0,0,1,4.581,6.769Zm56.617-16.692a3.136,3.136,0,0,1-3.13,3.137H62.91a11.185,11.185,0,0,0-5.627-6.655c-.024-.012-.048-.022-.073-.034l-6.51-2.785V90.831a19.487,19.487,0,0,0,4.947-12.993V76.552A6.022,6.022,0,0,0,59.324,69.5a4.812,4.812,0,0,0-3.536-3.563V60.057A19.857,19.857,0,0,0,50.7,46.765V34.586a3.136,3.136,0,0,1,3.13-3.137h9.707v2.234a1.343,1.343,0,0,0,1.341,1.344h40.5a1.343,1.343,0,0,0,1.341-1.344V31.45h7.471a3.137,3.137,0,0,1,3.13,3.137Z" transform="translate(-10 -24.634)"/>
      <path id="Path_4116" data-name="Path 4116" d="M407.867,221.686H398.06a1.341,1.341,0,1,0,0,2.683h9.807a1.341,1.341,0,1,0,0-2.683Z" transform="translate(-310.257 -177.528)" fill="#fe9987"/>
      <path id="Path_4117" data-name="Path 4117" d="M357.5,224.369h3.29a1.341,1.341,0,0,0,0-2.683H357.5a1.341,1.341,0,0,0,0,2.683Z" transform="translate(-278.764 -177.528)" fill="#fe9987"/>
      <path id="Path_4118" data-name="Path 4118" d="M430.361,286.582h-3.33a1.341,1.341,0,1,0,0,2.683h3.33a1.341,1.341,0,1,0,0-2.683Z" transform="translate(-332.75 -227.882)" fill="#fe9987"/>
      <path id="Path_4119" data-name="Path 4119" d="M344.585,289.265a1.341,1.341,0,1,0,0-2.683H326.819a1.341,1.341,0,0,0,0,2.683Z" transform="translate(-254.944 -227.882)" fill="#fe9987"/>
      <path id="Path_4120" data-name="Path 4120" d="M301.616,286.582h-1.2a1.341,1.341,0,1,0,0,2.683h1.2a1.341,1.341,0,0,0,0-2.683Z" transform="translate(-234.445 -227.882)" fill="#fe9987"/>
      <path id="Path_4121" data-name="Path 4121" d="M240.553,286.582a1.341,1.341,0,1,0,0,2.683h7.606a1.341,1.341,0,1,0,0-2.683Z" transform="translate(-187.965 -227.882)" fill="#fe9987"/>
      <path id="Path_4122" data-name="Path 4122" d="M415.267,346.563H407.59a1.341,1.341,0,0,0,0,2.683h7.677a1.341,1.341,0,1,0,0-2.683Z" transform="translate(-317.657 -274.422)" fill="#fe9987"/>
      <path id="Path_4123" data-name="Path 4123" d="M382.706,346.563h-.965a1.341,1.341,0,1,0,0,2.683h.964a1.341,1.341,0,0,0,0-2.683Z" transform="translate(-297.587 -274.422)" fill="#fe9987"/>
      <path id="Path_4124" data-name="Path 4124" d="M339.533,346.563h-7.292a1.341,1.341,0,1,0,0,2.683h7.292a1.341,1.341,0,1,0,0-2.683Z" transform="translate(-259.154 -274.422)" fill="#fe9987"/>
      <path id="Path_4125" data-name="Path 4125" d="M255.136,346.563H240.553a1.341,1.341,0,1,0,0,2.683h14.583a1.341,1.341,0,1,0,0-2.683Z" transform="translate(-187.965 -274.422)" fill="#fe9987"/>
      <path id="Path_4126" data-name="Path 4126" d="M438.919,170.6h-.866a1.341,1.341,0,0,0,0,2.683h.866a1.341,1.341,0,1,0,0-2.683Z" transform="translate(-341.309 -137.89)" fill="#fe9987"/>
      <path id="Path_4127" data-name="Path 4127" d="M369.68,173.283h9.508a1.341,1.341,0,0,0,0-2.683H369.68a1.341,1.341,0,1,0,0,2.683Z" transform="translate(-288.223 -137.89)" fill="#fe9987"/>
      <path id="Path_4128" data-name="Path 4128" d="M408.643,120.6h-9.584a1.341,1.341,0,1,0,0,2.683h9.584a1.341,1.341,0,0,0,0-2.683Z" transform="translate(-311.032 -99.095)" fill="#fe9987"/>
      <path id="Path_4129" data-name="Path 4129" d="M369.68,123.283h.79a1.341,1.341,0,0,0,0-2.683h-.79a1.341,1.341,0,1,0,0,2.683Z" transform="translate(-288.223 -99.095)" fill="#fe9987"/>
      <path id="Path_4130" data-name="Path 4130" d="M236.631,135.432a14.756,14.756,0,1,0-14.756-14.756,14.756,14.756,0,0,0,14.756,14.756Zm0-26.829a12.073,12.073,0,1,1-12.073,12.073A12.073,12.073,0,0,1,236.631,108.6Z" transform="translate(-174.505 -87.689)"/>
      <path id="Path_4131" data-name="Path 4131" d="M255.624,156.094a1.341,1.341,0,0,0,1.9,0l9.8-9.8a1.341,1.341,0,1,0-1.9-1.9l-8.851,8.851-2.876-2.875a1.341,1.341,0,1,0-1.9,1.9Z" transform="translate(-197.434 -117.248)" fill="#fff"/>
    </g>
  </g>
</svg>
