<?xml version="1.0" encoding="UTF-8"?>
<svg width="160px" height="160px" viewBox="0 0 160 160" version="1.1" xmlns="http://www.w3.org/2000/svg" xmlns:xlink="http://www.w3.org/1999/xlink">
    <title>Artboard</title>
    <g id="Artboard" stroke="none" stroke-width="1" fill="none" fill-rule="evenodd">
        <g id="Group-2">
            <circle id="Oval" fill="#F1F1F1" cx="80" cy="80" r="80"></circle>
            <g id="Group" transform="translate(35.000000, 29.000000)">
                <path d="M22.5769135,79.7003017 C16.9993135,79.7003017 12.3333935,78.4750217 8.57915348,76.0255817 C4.82491348,73.5761417 2.28475348,70.1870217 0.95867348,65.8604617 C-0.36740652,61.5339017 -0.31812652,56.6854217 1.10875348,51.3161417 C2.53563348,45.9468617 5.06571348,41.0860617 8.69787348,36.7337417 C12.3311535,32.3803017 16.6789935,28.9654217 21.7413935,26.4902217 C26.8049135,24.0139017 32.1249135,22.7751817 37.7025135,22.7751817 C43.2801135,22.7751817 47.9426735,24.0139017 51.6890735,26.4902217 C55.4365935,28.9654217 57.9700335,32.3803017 59.2893935,36.7337417 C60.6087535,41.0860617 60.5549935,45.9468617 59.1292335,51.3161417 C57.7023535,56.6854217 55.1756335,61.5339017 51.5501935,65.8604617 C47.9247535,70.1870217 43.5836335,73.5761417 38.5279535,76.0255817 C33.4711535,78.4750217 28.1556335,79.7003017 22.5769135,79.7003017 Z M25.9839535,66.8774217 C28.9037935,66.8774217 31.6567535,66.2255817 34.2450735,64.9219017 C36.8322735,63.6193417 39.0543535,61.7814217 40.9101935,59.4092617 C42.7649135,57.0371017 44.0943535,54.3390217 44.8973935,51.3161417 C45.7004335,48.2932617 45.8090735,45.5817417 45.2210735,43.1838217 C44.6330735,40.7859017 43.3943535,38.9222217 41.5071535,37.5927817 C39.6177135,36.2644617 37.2141935,35.5991817 34.2943535,35.5991817 C31.3756335,35.5991817 28.6193135,36.2644617 26.0242735,37.5927817 C23.4292335,38.9222217 21.2004335,40.7859017 19.3378735,43.1838217 C17.4764335,45.5817417 16.1436335,48.2932617 15.3405935,51.3161417 C14.5364335,54.3390217 14.4322735,57.0371017 15.0269935,59.4092617 C15.6217135,61.7814217 16.8671535,63.6193417 18.7621935,64.9219017 C20.6583535,66.2255817 23.0652335,66.8774217 25.9839535,66.8774217 L25.9839535,66.8774217 Z" id="Fill-2" fill="#000000"></path>
                <path d="M79.2847535,3.9356617 C95.8450735,14.8108617 92.4895535,44.8806217 71.7885935,71.0975817 C52.6825135,95.2940617 25.4799535,107.750702 8.38203348,100.975822 C22.1311535,101.812462 40.9997935,89.6671817 54.8665135,69.7771017 C71.9375535,45.2883017 74.9581935,18.3310217 61.6145135,9.5670217 C53.9727535,4.5483017 42.6215535,6.5855817 31.1101935,13.8409417 C33.0533935,11.9761417 35.0369135,10.4159817 36.9285935,9.1190217 C52.5929135,-0.450258297 68.7175535,-3.0049783 79.2847535,3.9356617" id="Fill-4" fill="#D62303"></path>
            </g>
        </g>
    </g>
</svg>