<?xml version="1.0" encoding="UTF-8"?>
<svg width="48px" height="28px" viewBox="0 0 48 28" version="1.1" xmlns="http://www.w3.org/2000/svg" xmlns:xlink="http://www.w3.org/1999/xlink">
    <title>send-money</title>
    <g id="Page-1" stroke="none" stroke-width="1" fill="none" fill-rule="evenodd">
        <g id="send-money" fill="#DD0F28" fill-rule="nonzero">
            <path d="M45,0 L3,0 C1.34314575,0 0,1.34314575 0,3 L0,25 C0,26.6568542 1.34314575,28 3,28 L45,28 C46.6568542,28 48,26.6568542 48,25 L48,3 C48,1.34314575 46.6568542,0 45,0 Z M45,26 L3,26 C2.44771525,26 2,25.5522847 2,25 L2,3 C2,2.44771525 2.44771525,2 3,2 L45,2 C45.5522847,2 46,2.44771525 46,3 L46,25 C46,25.5522847 45.5522847,26 45,26 Z" id="Shape"></path>
            <path d="M6,17.083 L6,10.917 C8.51603145,10.4868608 10.4868608,8.51603145 10.917,6 L15,6 L15,4 L10,4 C9.44771525,4 9,4.44771525 9,5 C9,7.209139 7.209139,9 5,9 C4.44771525,9 4,9.44771525 4,10 L4,18 C4,18.5522847 4.44771525,19 5,19 C7.209139,19 9,20.790861 9,23 C9,23.5522847 9.44771525,24 10,24 L15,24 L15,22 L10.917,22 C10.4868608,19.4839686 8.51603145,17.5131392 6,17.083 Z" id="Path"></path>
            <path d="M43,9 C40.790861,9 39,7.209139 39,5 C39,4.44771525 38.5522847,4 38,4 L33,4 L33,6 L37.083,6 C37.5131392,8.51603145 39.4839686,10.4868608 42,10.917 L42,17.083 C39.4839686,17.5131392 37.5131392,19.4839686 37.083,22 L33,22 L33,24 L38,24 C38.5522847,24 39,23.5522847 39,23 C39,20.790861 40.790861,19 43,19 C43.5522847,19 44,18.5522847 44,18 L44,10 C44,9.44771525 43.5522847,9 43,9 Z" id="Path"></path>
            <rect id="Rectangle" x="4" y="4" width="2" height="2"></rect>
            <rect id="Rectangle" x="42" y="4" width="2" height="2"></rect>
            <rect id="Rectangle" x="42" y="22" width="2" height="2"></rect>
            <rect id="Rectangle" x="4" y="22" width="2" height="2"></rect>
            <path d="M24,4 C18.4771525,4 14,8.4771525 14,14 C14,19.5228475 18.4771525,24 24,24 C29.5228475,24 34,19.5228475 34,14 C33.9939376,8.47966557 29.5203344,4.00606237 24,4 Z M24,22 C19.581722,22 16,18.418278 16,14 C16,9.581722 19.581722,6 24,6 C28.418278,6 32,9.581722 32,14 C31.9950401,18.4162219 28.4162219,21.9950401 24,22 L24,22 Z" id="Shape"></path>
            <g id="Group-21" transform="translate(19.000000, 11.000000)">
                <path d="M7.86227963,0.290615086 C7.5697078,-0.0429282061 7.03592824,-0.0974705249 6.66970433,0.169157899 C6.30359355,0.435683219 6.24385731,0.922336801 6.53642915,1.2559832 L7.38744437,2.22671275 L0.84852621,2.22671275 C0.379800332,2.22671275 0,2.5728348 0,3 C0,3.42715928 0.379800332,3.77328133 0.84852621,3.77328133 L7.38744437,3.77328133 L6.53642915,4.74401088 C6.24385731,5.07765728 6.30348042,5.56431086 6.66970433,5.83083618 C7.03819098,6.09901117 7.57174426,6.04086019 7.86227963,5.70937899 L9.81434247,3.48262954 C10.0618858,3.20032922 10.0618858,2.79956175 9.81434247,2.51726143 L7.86227963,0.290615086 Z" id="Path-Copy-3"></path>
            </g>
        </g>
    </g>
</svg>