<?xml version="1.0" encoding="UTF-8"?>
<svg width="23px" height="33px" viewBox="0 0 23 33" version="1.1" xmlns="http://www.w3.org/2000/svg" xmlns:xlink="http://www.w3.org/1999/xlink">
    <title>mobile</title>
    <g id="Page-1" stroke="none" stroke-width="1" fill="none" fill-rule="evenodd">
        <g id="smartphone-(1)" transform="translate(1.000000, 1.000000)">
            <path d="M17.5967413,31.2830957 L3.2586558,31.2830957 C1.46248473,31.2830957 0,29.8219145 0,28.0244399 L0,3.2586558 C0,1.46118126 1.46248473,0 3.2586558,0 L17.5967413,0 C19.3929124,0 20.8553971,1.46118126 20.8553971,3.2586558 L20.8553971,4.56211813 C20.8553971,4.92187373 20.5634216,5.21384929 20.203666,5.21384929 C19.8439104,5.21384929 19.5519348,4.92187373 19.5519348,4.56211813 L19.5519348,3.2586558 C19.5519348,2.18069246 18.6747047,1.30346232 17.5967413,1.30346232 L3.2586558,1.30346232 C2.18069246,1.30346232 1.30346232,2.18069246 1.30346232,3.2586558 L1.30346232,28.0244399 C1.30346232,29.1024033 2.18069246,29.9796334 3.2586558,29.9796334 L17.5967413,29.9796334 C18.6747047,29.9796334 19.5519348,29.1024033 19.5519348,28.0244399 L19.5519348,3.7209776 C19.5519348,3.361222 19.8439104,3.06924644 20.203666,3.06924644 C20.5634216,3.06924644 20.8553971,3.361222 20.8553971,3.7209776 L20.8553971,28.0244399 C20.8553971,29.8219145 19.3929124,31.2830957 17.5967413,31.2830957 Z" id="Path" stroke="#DD0E28" stroke-width="0.7" fill="#DD0E28" fill-rule="nonzero"></path>
            <rect id="Rectangle" stroke="#DD0E28" stroke-linecap="round" stroke-linejoin="round" x="4" y="15" width="13" height="5" rx="1.19999993"></rect>
            <path d="M8.075,18.54 L8.605,18.165 L8.525,18.06 C8.49833333,18.0233333 8.46333333,17.985 8.42,17.945 C8.37666667,17.905 8.33083333,17.8658333 8.2825,17.8275 C8.23416667,17.7891667 8.18583333,17.7525 8.1375,17.7175 C8.08916667,17.6825 8.045,17.6516667 8.005,17.625 L8.005,17.625 L8.25625,17.624375 L8.25625,17.624375 L8.35,17.6225 C8.41333333,17.6208333 8.47333333,17.6166667 8.53,17.61 C8.58666667,17.6033333 8.63666667,17.5933333 8.68,17.58 L8.68,17.58 L8.8,17.54 L8.6,16.92 L8.48,16.96 C8.44,16.9733333 8.39333333,16.9941667 8.34,17.0225 C8.28666667,17.0508333 8.23416667,17.0825 8.1825,17.1175 C8.13083333,17.1525 8.08,17.1875 8.03,17.2225 C7.98,17.2575 7.93833333,17.29 7.905,17.32 C7.92166667,17.2766667 7.93916667,17.2258333 7.9575,17.1675 C7.97583333,17.1091667 7.99333333,17.05 8.01,16.99 C8.02666667,16.93 8.04083333,16.8708333 8.0525,16.8125 C8.06416667,16.7541667 8.07,16.7033333 8.07,16.66 L8.07,16.66 L8.07,16.535 L7.42,16.535 L7.42,16.66 C7.42,16.7033333 7.42583333,16.7541667 7.4375,16.8125 C7.44916667,16.8708333 7.46333333,16.93 7.48,16.99 C7.49666667,17.05 7.51416667,17.1091667 7.5325,17.1675 C7.55083333,17.2258333 7.56833333,17.2766667 7.585,17.32 C7.54833333,17.29 7.50583333,17.2575 7.4575,17.2225 C7.40916667,17.1875 7.35916667,17.1525 7.3075,17.1175 C7.25583333,17.0825 7.20333333,17.0508333 7.15,17.0225 C7.09666667,16.9941667 7.05,16.9733333 7.01,16.96 L7.01,16.96 L6.89,16.92 L6.69,17.54 L6.81,17.58 C6.85333333,17.5933333 6.90333333,17.6033333 6.96,17.61 C7.01666667,17.6166667 7.07666667,17.6208333 7.14,17.6225 C7.20333333,17.6241667 7.265,17.625 7.325,17.625 L7.485,17.625 C7.445,17.6516667 7.40083333,17.6825 7.3525,17.7175 C7.30416667,17.7525 7.25583333,17.7891667 7.2075,17.8275 C7.15916667,17.8658333 7.11333333,17.905 7.07,17.945 C7.02666667,17.985 6.99166667,18.0233333 6.965,18.06 L6.965,18.06 L6.885,18.165 L7.415,18.54 L7.49,18.44 C7.51666667,18.4066667 7.5425,18.3633333 7.5675,18.31 C7.5925,18.2566667 7.61666667,18.2008333 7.64,18.1425 C7.66333333,18.0841667 7.68333333,18.0266667 7.7,17.97 C7.71666667,17.9133333 7.73166667,17.8616667 7.745,17.815 C7.75833333,17.8616667 7.77333333,17.9133333 7.79,17.97 C7.80666667,18.0266667 7.82666667,18.0841667 7.85,18.1425 C7.87333333,18.2008333 7.8975,18.2566667 7.9225,18.31 C7.9475,18.3633333 7.97333333,18.4066667 8,18.44 L8,18.44 L8.075,18.54 Z" id="*" fill="#D32F2F" fill-rule="nonzero"></path>
            <path d="M11.075,18.54 L11.605,18.165 L11.525,18.06 C11.4983333,18.0233333 11.4633333,17.985 11.42,17.945 C11.3766667,17.905 11.3308333,17.8658333 11.2825,17.8275 C11.2341667,17.7891667 11.1858333,17.7525 11.1375,17.7175 C11.0891667,17.6825 11.045,17.6516667 11.005,17.625 L11.005,17.625 L11.25625,17.624375 L11.25625,17.624375 L11.35,17.6225 C11.4133333,17.6208333 11.4733333,17.6166667 11.53,17.61 C11.5866667,17.6033333 11.6366667,17.5933333 11.68,17.58 L11.68,17.58 L11.8,17.54 L11.6,16.92 L11.48,16.96 C11.44,16.9733333 11.3933333,16.9941667 11.34,17.0225 C11.2866667,17.0508333 11.2341667,17.0825 11.1825,17.1175 C11.1308333,17.1525 11.08,17.1875 11.03,17.2225 C10.98,17.2575 10.9383333,17.29 10.905,17.32 C10.9216667,17.2766667 10.9391667,17.2258333 10.9575,17.1675 C10.9758333,17.1091667 10.9933333,17.05 11.01,16.99 C11.0266667,16.93 11.0408333,16.8708333 11.0525,16.8125 C11.0641667,16.7541667 11.07,16.7033333 11.07,16.66 L11.07,16.66 L11.07,16.535 L10.42,16.535 L10.42,16.66 C10.42,16.7033333 10.4258333,16.7541667 10.4375,16.8125 C10.4491667,16.8708333 10.4633333,16.93 10.48,16.99 C10.4966667,17.05 10.5141667,17.1091667 10.5325,17.1675 C10.5508333,17.2258333 10.5683333,17.2766667 10.585,17.32 C10.5483333,17.29 10.5058333,17.2575 10.4575,17.2225 C10.4091667,17.1875 10.3591667,17.1525 10.3075,17.1175 C10.2558333,17.0825 10.2033333,17.0508333 10.15,17.0225 C10.0966667,16.9941667 10.05,16.9733333 10.01,16.96 L10.01,16.96 L9.89,16.92 L9.69,17.54 L9.81,17.58 C9.85333333,17.5933333 9.90333333,17.6033333 9.96,17.61 C10.0166667,17.6166667 10.0766667,17.6208333 10.14,17.6225 C10.2033333,17.6241667 10.265,17.625 10.325,17.625 L10.485,17.625 C10.445,17.6516667 10.4008333,17.6825 10.3525,17.7175 C10.3041667,17.7525 10.2558333,17.7891667 10.2075,17.8275 C10.1591667,17.8658333 10.1133333,17.905 10.07,17.945 C10.0266667,17.985 9.99166667,18.0233333 9.965,18.06 L9.965,18.06 L9.885,18.165 L10.415,18.54 L10.49,18.44 C10.5166667,18.4066667 10.5425,18.3633333 10.5675,18.31 C10.5925,18.2566667 10.6166667,18.2008333 10.64,18.1425 C10.6633333,18.0841667 10.6833333,18.0266667 10.7,17.97 C10.7166667,17.9133333 10.7316667,17.8616667 10.745,17.815 C10.7583333,17.8616667 10.7733333,17.9133333 10.79,17.97 C10.8066667,18.0266667 10.8266667,18.0841667 10.85,18.1425 C10.8733333,18.2008333 10.8975,18.2566667 10.9225,18.31 C10.9475,18.3633333 10.9733333,18.4066667 11,18.44 L11,18.44 L11.075,18.54 Z" id="*-copy" fill="#D32F2F" fill-rule="nonzero"></path>
            <path d="M14.075,18.54 L14.605,18.165 L14.525,18.06 C14.4983333,18.0233333 14.4633333,17.985 14.42,17.945 C14.3766667,17.905 14.3308333,17.8658333 14.2825,17.8275 C14.2341667,17.7891667 14.1858333,17.7525 14.1375,17.7175 C14.0891667,17.6825 14.045,17.6516667 14.005,17.625 L14.005,17.625 L14.25625,17.624375 L14.25625,17.624375 L14.35,17.6225 C14.4133333,17.6208333 14.4733333,17.6166667 14.53,17.61 C14.5866667,17.6033333 14.6366667,17.5933333 14.68,17.58 L14.68,17.58 L14.8,17.54 L14.6,16.92 L14.48,16.96 C14.44,16.9733333 14.3933333,16.9941667 14.34,17.0225 C14.2866667,17.0508333 14.2341667,17.0825 14.1825,17.1175 C14.1308333,17.1525 14.08,17.1875 14.03,17.2225 C13.98,17.2575 13.9383333,17.29 13.905,17.32 C13.9216667,17.2766667 13.9391667,17.2258333 13.9575,17.1675 C13.9758333,17.1091667 13.9933333,17.05 14.01,16.99 C14.0266667,16.93 14.0408333,16.8708333 14.0525,16.8125 C14.0641667,16.7541667 14.07,16.7033333 14.07,16.66 L14.07,16.66 L14.07,16.535 L13.42,16.535 L13.42,16.66 C13.42,16.7033333 13.4258333,16.7541667 13.4375,16.8125 C13.4491667,16.8708333 13.4633333,16.93 13.48,16.99 C13.4966667,17.05 13.5141667,17.1091667 13.5325,17.1675 C13.5508333,17.2258333 13.5683333,17.2766667 13.585,17.32 C13.5483333,17.29 13.5058333,17.2575 13.4575,17.2225 C13.4091667,17.1875 13.3591667,17.1525 13.3075,17.1175 C13.2558333,17.0825 13.2033333,17.0508333 13.15,17.0225 C13.0966667,16.9941667 13.05,16.9733333 13.01,16.96 L13.01,16.96 L12.89,16.92 L12.69,17.54 L12.81,17.58 C12.8533333,17.5933333 12.9033333,17.6033333 12.96,17.61 C13.0166667,17.6166667 13.0766667,17.6208333 13.14,17.6225 C13.2033333,17.6241667 13.265,17.625 13.325,17.625 L13.485,17.625 C13.445,17.6516667 13.4008333,17.6825 13.3525,17.7175 C13.3041667,17.7525 13.2558333,17.7891667 13.2075,17.8275 C13.1591667,17.8658333 13.1133333,17.905 13.07,17.945 C13.0266667,17.985 12.9916667,18.0233333 12.965,18.06 L12.965,18.06 L12.885,18.165 L13.415,18.54 L13.49,18.44 C13.5166667,18.4066667 13.5425,18.3633333 13.5675,18.31 C13.5925,18.2566667 13.6166667,18.2008333 13.64,18.1425 C13.6633333,18.0841667 13.6833333,18.0266667 13.7,17.97 C13.7166667,17.9133333 13.7316667,17.8616667 13.745,17.815 C13.7583333,17.8616667 13.7733333,17.9133333 13.79,17.97 C13.8066667,18.0266667 13.8266667,18.0841667 13.85,18.1425 C13.8733333,18.2008333 13.8975,18.2566667 13.9225,18.31 C13.9475,18.3633333 13.9733333,18.4066667 14,18.44 L14,18.44 L14.075,18.54 Z" id="*-copy-2" fill="#D32F2F" fill-rule="nonzero"></path>
            <path d="M13.0346232,3.91038697 L7.82077393,3.91038697 C6.74281059,3.91038697 5.86558045,3.03315682 5.86558045,1.95519348 C5.86558045,1.59674134 5.57360489,1.30346232 5.21384929,1.30346232 L3.91038697,1.30346232 C3.55063136,1.30346232 3.2586558,1.01148676 3.2586558,0.651731161 C3.2586558,0.29197556 3.55063136,0 3.91038697,0 L5.21384929,0 C6.29181263,0 7.16904277,0.877230143 7.16904277,1.95519348 C7.16904277,2.31364562 7.46101833,2.60692464 7.82077393,2.60692464 L13.0346232,2.60692464 C13.3943788,2.60692464 13.6863544,2.31364562 13.6863544,1.95519348 C13.6863544,0.877230143 14.5635845,0 15.6415479,0 L16.9450102,0 C17.3047658,0 17.5967413,0.29197556 17.5967413,0.651731161 C17.5967413,1.01148676 17.3047658,1.30346232 16.9450102,1.30346232 L15.6415479,1.30346232 C15.2817923,1.30346232 14.9898167,1.59674134 14.9898167,1.95519348 C14.9898167,3.03315682 14.1125866,3.91038697 13.0346232,3.91038697 Z" id="Path" stroke="#DD0E28" stroke-width="0.6" fill="#DD0E28" fill-rule="nonzero"></path>
        </g>
    </g>
</svg>