<?xml version="1.0" encoding="UTF-8"?>
<svg width="32px" height="32px" viewBox="0 0 32 32" version="1.1" xmlns="http://www.w3.org/2000/svg" xmlns:xlink="http://www.w3.org/1999/xlink">
    <title>translation</title>
    <g id="Page-1" stroke="none" stroke-width="1" fill="none" fill-rule="evenodd">
        <g id="translation" fill="#DD0E28" fill-rule="nonzero">
            <path d="M21.8488125,10.1535 C21.464875,4.564 16.793,0 10.9375,0 C4.9065625,0 0,4.9065625 0,10.9375 C0,16.7915625 4.5630625,21.4653125 10.1535625,21.849125 C10.558125,27.5143125 15.2960625,32 21.0625,32 C27.0934375,32 32,27.0934375 32,21.0625 C32,15.296 27.514125,10.5579375 21.8488125,10.1535 Z M1.875,10.9375 C1.875,5.9404375 5.9404375,1.875 10.9375,1.875 C15.74225,1.875 19.6015625,5.592 19.9708125,10.179375 C17.7294375,10.4025 15.685375,11.305375 14.0475,12.6779375 L11.889375,6.2035625 C11.76175,5.8206875 11.4035625,5.5625 11,5.5625 C10.5964375,5.5625 10.23825,5.8206875 10.110625,6.2035625 L7.110625,15.2035625 C6.907625,15.8125 7.3635,16.43775 8.000125,16.43775 C8.392625,16.43775 8.7584375,16.1893125 8.8894375,15.7964375 L9.342375,14.4375 L12.366,14.4375 C11.168875,16.0051875 10.385,17.90425 10.1793125,19.9713125 C5.6714375,19.6105 1.875,15.8141875 1.875,10.9375 L1.875,10.9375 Z M12.032625,12.5625 L9.967375,12.5625 L11,9.464625 L12.032625,12.5625 Z M21.0625,30.125 C16.0654375,30.125 12,26.0595625 12,21.0625 C12,16.0654375 16.0654375,12 21.0625,12 C26.0595625,12 30.125,16.0654375 30.125,21.0625 C30.125,26.0595625 26.0595625,30.125 21.0625,30.125 Z" id="Shape"></path>
            <path d="M19.5,16.5625 L17,16.5625 C16.48225,16.5625 16.0624795,16.98225 16.0624795,17.5 C16.0624795,18.01775 16.48225,18.4375 17,18.4375 L18.5143125,18.4375 C18.3671875,20.046625 17.84325,22.6248125 16.414375,23.7679375 C16.0100625,24.091375 15.9445,24.6813125 16.2679375,25.085625 C16.592375,25.491125 17.1825625,25.5545625 17.585625,25.232 C20.4050625,22.9765625 20.4375,17.7225625 20.4375,17.5 C20.4375,16.98225 20.01775,16.5625 19.5,16.5625 Z" id="Path"></path>
            <path d="M25,19.0625 L23.9375,19.0625 L23.9375,16.5 C23.9375,15.98225 23.51775,15.5625 23,15.5625 C22.48225,15.5625 22.0625,15.98225 22.0625,16.5 L22.0625,25.5 C22.0625,26.01775 22.48225,26.4375 23,26.4375 C23.51775,26.4375 23.9375,26.01775 23.9375,25.5 L23.9375,20.9375 L25,20.9375 C25.51775,20.9375 25.9375,20.51775 25.9375,20 C25.9375,19.48225 25.51775,19.0625 25,19.0625 Z" id="Path"></path>
            <path d="M24,3.9375 C26.2400625,3.9375 28.0625,5.7599375 28.0625,8 C28.0625,8.51775 28.48225,8.9375 29,8.9375 C29.51775,8.9375 29.9375,8.51775 29.9375,8 C29.9375,4.7260625 27.2739375,2.0625 24,2.0625 C23.48225,2.0625 23.0625,2.48225 23.0625,3 C23.0625,3.51775 23.48225,3.9375 24,3.9375 Z" id="Path"></path>
            <path d="M8,28.0625 C5.7599375,28.0625 3.9375,26.2400625 3.9375,24 C3.9375,23.48225 3.51775,23.0625 3,23.0625 C2.48225,23.0625 2.0625,23.48225 2.0625,24 C2.0625,27.2739375 4.7260625,29.9375 8,29.9375 C8.51775,29.9375 8.9375,29.51775 8.9375,29 C8.9375,28.48225 8.51775,28.0625 8,28.0625 Z" id="Path"></path>
        </g>
    </g>
</svg>