<svg xmlns="http://www.w3.org/2000/svg" width="180" height="32" viewBox="0 0 180 32"><defs><style>.a{fill:#c5001a;}.a,.b{fill-rule:evenodd;}.b{fill:#040505;}</style></defs><g transform="translate(-39.818 -24.969)"><path class="a" d="M51.67,45.863A12.09,12.09,0,0,0,40.135,54.5c-1.328,4.989,1.624,8.738,6.912,8.738A12.186,12.186,0,0,0,58.608,54.5c1.315-4.941-1.649-8.64-6.938-8.64Zm-.962,3.8c2.559,0,4.049,2.093,3.311,4.868a6.59,6.59,0,0,1-5.914,4.916c-2.535,0-4.134-2.141-3.4-4.916a6.639,6.639,0,0,1,6-4.868ZM73.858,63.046H68.813l-1.23-4.722H64.269l-1.256,4.722h-4.46l4.539-17.061h7.677c4.533,0,6.534,2.191,5.524,5.987a8.1,8.1,0,0,1-4.51,5.5l2.075,5.574ZM66.607,49.538l-1.392,5.233h3.241a3.41,3.41,0,0,0,3.557-2.653c.447-1.68-.362-2.58-2.165-2.58Zm22.246-3.553H80.737L76.2,63.046H84.63c4.021,0,7.066-1.825,7.843-4.746.583-2.19-.311-3.87-2.363-4.308a5.371,5.371,0,0,0,3.933-3.7c.7-2.628-1.315-4.308-5.19-4.308ZM86.8,52.775H83.391l.881-3.31h3.412c1.249-.024,1.843.584,1.571,1.606a2.347,2.347,0,0,1-2.452,1.7ZM84.989,59.59H81.578l.952-3.578h3.412c1.566-.024,2.36.657,2.075,1.728-.311,1.168-1.467,1.85-3.027,1.85Zm13.2-13.605h4.46L98.108,63.046h-4.46l4.539-17.061Zm6.288,0L103.5,49.66h5.069L105,63.046h4.46l3.562-13.386h5.118l.978-3.675Z" transform="translate(0 -13.61)"/><path class="b" d="M293,45.646l-4.533,17.037h-4.192l2.92-10.977-5.813,7.009h-3.144l-2.083-7.009-2.92,10.977H269.04l4.533-17.037h5.118l2.417,8.226,6.771-8.226Zm7,17.377a11.272,11.272,0,0,0,4.972-1.144,12.147,12.147,0,0,0,4.059-3.164,11.611,11.611,0,0,0,2.362-4.527,8.2,8.2,0,0,0,.05-4.539,5.681,5.681,0,0,0-2.369-3.188,7.749,7.749,0,0,0-4.359-1.156,11.2,11.2,0,0,0-4.975,1.156,12.246,12.246,0,0,0-4.065,3.188,11.7,11.7,0,0,0-2.365,4.539,8.131,8.131,0,0,0-.047,4.527,5.635,5.635,0,0,0,2.375,3.164A7.828,7.828,0,0,0,300,63.023Zm1.062-3.991a3.889,3.889,0,0,1-2.251-.609,2.841,2.841,0,0,1-1.164-1.716,5.012,5.012,0,0,1,.1-2.519,7.018,7.018,0,0,1,1.246-2.531,6.189,6.189,0,0,1,2.084-1.74,5.581,5.581,0,0,1,2.578-.621,3.819,3.819,0,0,1,2.248.621,2.889,2.889,0,0,1,1.158,1.74,5.087,5.087,0,0,1-.1,2.531,6.922,6.922,0,0,1-1.243,2.519,6.1,6.1,0,0,1-2.077,1.716A5.652,5.652,0,0,1,301.06,59.032Z" transform="translate(-149.205 -13.247)"/><path class="b" d="M421.348,46.282l-4.533,17.037h-4L407.988,53.17l-2.7,10.149H401.1l4.533-17.037h4l4.83,10.149,2.7-10.149ZM433.966,59.5h-8.6l.771-2.9h7.725l1-3.772h-7.725l.725-2.726h8.359l1.017-3.821H424.663L420.13,63.319h12.819l1.017-3.821Zm21.015-13.216-8.95,10.466-1.749,6.571h-4.29l1.749-6.571-3.382-10.466h4.85l1.758,6.4,5.164-6.4Z" transform="translate(-235.163 -13.883)"/><path class="a" d="M367.151,26.194c5.161,3.385,4.115,12.745-2.336,20.9-5.955,7.532-14.434,11.409-19.763,9.3,4.285.26,10.166-3.52,14.488-9.711,5.321-7.622,6.263-16.013,2.1-18.741-2.382-1.562-5.92-.928-9.508,1.33a14.308,14.308,0,0,1,1.813-1.47C358.832,24.829,363.857,24.034,367.151,26.194Z" transform="translate(-198.683)"/></g></svg>