<?xml version="1.0" encoding="UTF-8"?>
<svg width="46px" height="46px" viewBox="0 0 46 46" version="1.1" xmlns="http://www.w3.org/2000/svg" xmlns:xlink="http://www.w3.org/1999/xlink">
    <title>Artboard</title>
    <g id="Artboard" stroke="none" stroke-width="1" fill="none" fill-rule="evenodd">
        <g id="logo" transform="translate(5.000000, 3.000000)">
            <path d="M8.82957215,30.6614524 C10.9591815,30.6659978 13.0614903,30.1822807 14.9749642,29.2474683 C16.9073973,28.3171947 18.6180958,26.9837012 19.9918883,25.3367643 C21.3681684,23.7113764 22.3654242,21.8000398 22.9113203,19.7413922 C23.4594292,17.9143974 23.4808501,15.9698137 22.9731203,14.1311882 C22.5029877,12.5082093 21.4633757,11.1091874 20.0450363,10.1908201 C18.4304967,9.1909423 16.5551571,8.69360515 14.6573122,8.7620041 C12.5249229,8.75831873 10.4205081,9.24730435 8.50821214,10.1908201 C6.57229203,11.1320593 4.85940417,12.4754016 3.48387208,14.1311882 C2.10738884,15.7626046 1.10912646,17.6785085 0.560732048,19.7413922 C0.0120485763,21.5634063 -0.00809637873,23.5037512 0.502640047,25.3367643 C0.976340157,26.9522701 2.01915732,28.3415221 3.43814008,29.2474683 C5.05767785,30.2374446 6.93263552,30.7291804 8.82957215,30.6614524 L8.82957215,30.6614524 Z M10.1422042,25.7285763 C9.15962956,25.768169 8.18855108,25.5054472 7.35996813,24.9758523 C6.63031006,24.4753693 6.1164873,23.717878 5.92126411,22.8548763 C5.69651972,21.8234685 5.73906557,20.7517384 6.04486411,19.7413922 C6.34117841,18.605128 6.86511409,17.5408574 7.58492013,16.6130762 C8.27377299,15.7143902 9.1535456,14.9798392 10.1607442,14.4624362 C11.1457902,13.9543052 12.238776,13.6909556 13.3471522,13.6948802 C14.3307048,13.6547555 15.3021942,13.9231251 16.1256802,14.4624362 C16.8544654,14.9755609 17.3650024,15.742689 17.5569683,16.6130762 C17.7801942,17.6495898 17.7376762,18.7257215 17.4333682,19.7413922 C17.139426,20.8733147 16.6165454,21.9329576 15.8970202,22.8548763 C15.2100709,23.7443668 14.3329562,24.4690316 13.3298482,24.9758523 C12.341219,25.4762029 11.2477514,25.7342121 10.1397322,25.7285763 L10.1422042,25.7285763 Z" id="Shape" fill="#040505"></path>
            <path d="M30.6734004,1.51410002 C37.0523965,5.69796007 35.7595405,17.2669202 27.7861044,27.3465003 C20.4257243,36.6560524 9.94568016,41.4480245 3.35903608,38.8413005 C8.65529614,39.1626605 15.9242122,34.4905804 21.2662043,26.8385043 C27.8429604,17.4177122 29.0072724,7.04643608 23.8618043,3.67462804 C20.9176523,1.74399602 16.5446842,2.52762003 12.1099162,5.31850806 C12.8061442,4.65285152 13.5555932,4.04519016 14.3507842,3.50158804 C20.3911163,-0.173040002 26.6020164,-1.15566001 30.6734004,1.51410002 Z" id="Path" fill="#C5001A"></path>
        </g>
    </g>
</svg>