<?xml version="1.0" encoding="UTF-8"?>
<svg width="201px" height="144px" viewBox="0 0 201 144" version="1.1" xmlns="http://www.w3.org/2000/svg" xmlns:xlink="http://www.w3.org/1999/xlink">
    <title>add-card</title>
    <defs>
        <linearGradient x1="50%" y1="0%" x2="50%" y2="100%" id="linearGradient-1">
            <stop stop-color="#EEEEEE" offset="0%"></stop>
            <stop stop-color="#D6D6D6" stop-opacity="0.566160402" offset="100%"></stop>
        </linearGradient>
    </defs>
    <g id="Page-1" stroke="none" stroke-width="1" fill="none" fill-rule="evenodd">
        <g id="add-card" transform="translate(1.000000, 0.000000)">
            <g id="Group-21" transform="translate(0.000000, 13.000000)">
                <g id="Rectangle">
                    <g id="path-2-link" fill="#000000" fill-rule="nonzero">
                        <rect id="path-2" x="0" y="0" width="199" height="130" rx="12"></rect>
                    </g>
                    <g id="path-2-link" fill="#FFFFFF" stroke="url(#linearGradient-1)">
                        <rect id="path-2" x="0" y="0" width="199" height="130" rx="12"></rect>
                    </g>
                </g>
                <path d="M58,43.999 L58,49 C58,50.6568542 56.6568542,52 55,52 L44,52 L44,43.999 L58,43.999 Z M32,44 L32,52 L21,52 C19.3431458,52 18,50.6568542 18,49 L18,43.999 L32,44 Z M42,26 L42,52 L34,52 L34,26 L42,26 Z M32,36 L32,42 L18,41.999 L18,35.999 L32,36 Z M58,35.999 L58,41.999 L44,41.999 L44,35.999 L58,35.999 Z M32,26 L32,34 L18,33.999 L18,29 C18,27.3431458 19.3431458,26 21,26 L32,26 Z M55,26 C56.6568542,26 58,27.3431458 58,29 L58,33.999 L44,33.999 L44,26 L55,26 Z" id="Combined-Shape" fill="#EDEDED" fill-rule="nonzero"></path>
                <rect id="Rectangle" fill="#EDEDED" fill-rule="nonzero" x="18" y="71" width="120" height="12" rx="1"></rect>
                <rect id="Rectangle-Copy-33" fill="#EDEDED" fill-rule="nonzero" x="18" y="102" width="60" height="5" rx="1"></rect>
                <rect id="Rectangle-Copy-32" fill="#EDEDED" fill-rule="nonzero" x="149" y="71" width="32" height="12" rx="1"></rect>
            </g>
            <g id="plus" transform="translate(147.000000, 0.000000)" fill-rule="nonzero">
                <path d="M28.3845095,28.8934795 C23.5062796,32.8757094 8.27427986,32.8757094 3.49558994,28.8934795 C-1.38263998,24.9112496 -0.884869985,7.88724987 3.49558994,3.40724994 C7.87604987,-1.07274998 24.0040496,-1.07274998 28.3845095,3.40724994 C32.7649694,7.88724987 33.2627394,24.9113196 28.3845095,28.8934795 Z" id="Path" fill="#5DB257"></path>
                <g id="Group" opacity="0.2" fill="#FFFFFF">
                    <path d="M16.0396597,21.9246296 C11.6591998,25.4090896 6.78096988,27.2010895 2.20142996,27.3006295 C-1.18348998,21.5263996 -0.486569992,7.48908987 3.49565994,3.40731994 C7.07965988,-0.276219995 18.3294297,-0.973139983 24.8005796,1.31662998 C26.3934296,7.88731987 23.1081196,16.2499397 16.0396597,21.9246296 Z" id="Path"></path>
                </g>
                <path d="M25.3978896,15.9513197 C25.3978896,16.9468597 24.6014296,17.7433197 23.6058896,17.7433197 L17.6325797,17.7433197 L17.6325797,23.7166296 C17.6325797,24.7121696 16.8361197,25.5086296 15.8405797,25.5086296 C14.8450397,25.5086296 14.0485798,24.7121696 14.0485798,23.7166296 L14.0485798,17.7433197 L8.07519986,17.7433197 C7.07965988,17.7433197 6.28319989,16.9468597 6.28319989,15.9513197 C6.28319989,14.9557797 7.07965988,14.1593198 8.07519986,14.1593198 L14.0485098,14.1593198 L14.0485098,8.18600986 C14.0485098,7.19046988 14.8449697,6.39400989 15.8405097,6.39400989 C16.8360497,6.39400989 17.6325097,7.19046988 17.6325097,8.18600986 L17.6325097,14.1593198 L23.6058196,14.1593198 C24.6014296,14.1593198 25.3978896,14.9557097 25.3978896,15.9513197 Z" id="Path" fill="#FFFFFF"></path>
            </g>
        </g>
    </g>
</svg>