<?xml version="1.0" encoding="UTF-8"?>
<svg width="86px" height="86px" viewBox="0 0 86 86" version="1.1" xmlns="http://www.w3.org/2000/svg" xmlns:xlink="http://www.w3.org/1999/xlink">
    <title>credit-card</title>
    <g id="Page-1" stroke="none" stroke-width="1" fill="none" fill-rule="evenodd">
        <g id="credit-card" fill-rule="nonzero">
            <circle id="Oval" fill="#FFFFFF" cx="43" cy="43" r="43"></circle>
            <g id="credit-cards-payment" transform="translate(19.000000, 20.000000)" fill="#E64E60">
                <path d="M48.8793748,6.659164 L17.7547813,0.0723271588 C16.4379453,-0.206269417 15.1327349,0.643304821 14.8541383,1.96014074 L14.2628161,5.76018143 L50.1753679,13.3598476 L50.7666902,9.55980692 C51.0452867,8.24346924 50.1962107,6.93784361 48.8793748,6.659164 Z" id="Path"></path>
                <path d="M35.7906503,14.1657432 C35.4271046,12.8565469 34.0589504,12.0827044 32.7501693,12.4456689 L26.8415968,14.0859425 L12.9124323,11.1380503 L11.3805248,18.3761637 L1.8090924,21.0327544 C0.500394327,21.3958018 -0.273448144,22.763956 0.0895162769,24.0727371 L5.48357779,43.5103911 C5.84712349,44.8190892 7.21536068,45.5934299 8.52405875,45.2299673 L39.4651356,36.643463 C40.7738337,36.2799173 41.5476762,34.9122614 41.1847118,33.6029821 L40.2588245,30.2661341 L43.7289504,30.9997856 C45.0457863,31.2788804 46.3509967,30.4293062 46.6295933,29.1124703 L48.8250672,18.7377995 L36.3255059,16.0927513 L35.7906503,14.1657432 Z M39.3639108,24.0447529 L40.1291172,20.4282289 C40.2440435,19.8867301 40.7809751,19.5374672 41.3223908,19.6518122 L44.9389148,20.4175168 C45.4809118,20.5324431 45.8301747,21.0687934 45.7158297,21.6107904 L44.9506233,25.2273144 C44.8356971,25.7688131 44.2988485,26.1185743 43.7573498,26.0037311 L40.1408258,25.2385247 C39.5983306,25.1231832 39.2489846,24.5862516 39.3639108,24.0447529 Z M2.34751869,22.9724675 L10.9101076,20.5970476 L31.1134663,14.9904887 L33.2875161,14.3864615 C33.3272088,14.3757494 33.3668185,14.370684 33.4055148,14.370684 C33.5798972,14.370684 33.7884086,14.485112 33.8493594,14.7042525 L34.104622,15.6234967 L34.9043727,18.5052897 L3.08474087,27.335348 L2.0297276,23.5348091 C1.96362839,23.2963204 2.10911309,23.0385667 2.34751869,22.9724675 Z M39.2444174,34.1408271 C39.2851066,34.2883047 39.2424245,34.4102893 39.199161,34.4866024 C39.1564789,34.5628324 39.074104,34.6625625 38.9266263,34.7031687 L7.9861307,43.2896729 C7.94701923,43.300385 7.90682825,43.3059486 7.86813197,43.3059486 C7.69374961,43.3059486 7.48523814,43.1910223 7.42428735,42.9718818 L4.27809747,31.6342052 L36.0977293,22.8036487 L38.0384388,29.7962152 L39.2444174,34.1408271 Z" id="Shape"></path>
                <path d="M12.9855899,34.9166625 C12.8371157,34.3828034 12.2798395,34.0675865 11.7459804,34.2155624 L8.13252884,35.2186761 C7.59916795,35.366652 7.28345284,35.9244264 7.43192696,36.4582856 L8.43454248,40.0712389 C8.5830166,40.605098 9.14029279,40.9203149 9.67415192,40.7718408 L13.2876035,39.7692253 C13.8214626,39.6212494 14.1366795,39.0634749 13.9887036,38.5296158 L12.9855899,34.9166625 Z" id="Path"></path>
            </g>
        </g>
    </g>
</svg>