<?xml version="1.0" encoding="UTF-8"?>
<svg width="86px" height="86px" viewBox="0 0 86 86" version="1.1" xmlns="http://www.w3.org/2000/svg" xmlns:xlink="http://www.w3.org/1999/xlink">
    <title>direct-debit</title>
    <g id="Page-1" stroke="none" stroke-width="1" fill="none" fill-rule="evenodd">
        <g id="direct-debit" fill-rule="nonzero">
            <circle id="Oval" fill="#FFFFFF" cx="43" cy="43" r="43"></circle>
            <path d="M63,55.4262372 L63,60 L24,60 L24,55.4262372 L63,55.4262372 Z M32.0211264,37.8379765 L32.0211264,53.1404983 L27.4294856,53.1404983 L27.4294856,37.8379765 L32.0211264,37.8379765 Z M41.2044081,37.8379765 L41.2044081,53.1404983 L36.6127673,53.1404983 L36.6127673,37.8379765 L41.2044081,37.8379765 Z M50.3876898,37.8379765 L50.3876898,53.1404983 L45.796049,53.1404983 L45.796049,37.8379765 L50.3876898,37.8379765 Z M59.5702097,37.8379765 L59.5702097,53.1404983 L54.9785689,53.1404983 L54.9785689,37.8379765 L59.5702097,37.8379765 Z M63,30.9777131 L63,35.551476 L24,35.551476 L24,30.9777131 L63,30.9777131 Z M43.5,21 L62.0846579,28.6928884 L24.915342,28.6928884 L43.5,21 Z" id="Combined-Shape" fill="#E64E60"></path>
        </g>
    </g>
</svg>