<?xml version="1.0" encoding="UTF-8"?>
<svg width="86px" height="86px" viewBox="0 0 86 86" version="1.1" xmlns="http://www.w3.org/2000/svg" xmlns:xlink="http://www.w3.org/1999/xlink">
    <title>etransfer</title>
    <g id="Page-1" stroke="none" stroke-width="1" fill="none" fill-rule="evenodd">
        <g id="etransfer" fill-rule="nonzero">
            <circle id="Oval" fill="#FFFFFF" cx="43" cy="43" r="43"></circle>
            <g transform="translate(14.000000, 19.000000)" fill="#E64E60" id="Combined-Shape">
                <path d="M7.2776871,25.2632613 C8.3703187,25.2632613 9.2560716,26.1476297 9.2560716,27.2385534 L9.2560716,27.2385534 L9.2568303,28.3494671 C9.2568894,28.416567 9.2569514,28.4858425 9.2570161,28.5571338 L9.2579109,29.4991652 C9.2579942,29.5840272 9.2580796,29.6702662 9.2581666,29.7577223 L9.2589922,30.5733783 C9.259088,30.6666999 9.259185,30.7607594 9.2592829,30.8553972 L9.2598807,31.4288851 C9.2599818,31.525197 9.2600834,31.6217677 9.2601854,31.7184374 L9.2608007,32.2983667 C9.2609035,32.3947938 9.2610063,32.4910004 9.2611089,32.586827 L9.2617207,33.1559469 C9.2618218,33.2496141 9.2619222,33.3425816 9.2620219,33.4346899 L9.262893,34.23615 C9.2629862,34.3216648 9.2630782,34.4058411 9.2631685,34.4885192 L9.2639346,35.1878574 C9.2640139,35.2601086 9.2640911,35.3303823 9.2641659,35.398519 L9.2649394,36.1033531 C9.2649924,36.151837 9.2650424,36.1975448 9.265089,36.2403168 L9.2655298,36.6586465 C9.2655298,36.8933401 9.4560843,37.0835968 9.6911453,37.0835968 C9.9262062,37.0835968 10.1167608,36.8933401 10.1167608,36.6586465 L10.1167608,36.6586465 L10.1169865,34.9204184 C10.1169975,34.842089 10.1170088,34.7620892 10.1170203,34.6806273 L10.1178521,28.9724956 L15.1091942,32.357206 C15.8290524,32.8376091 16.2608245,33.6454222 16.2598148,34.5099239 L16.2598148,34.5099239 L16.2590107,38.2661891 C16.2589906,38.3508271 16.2589701,38.4363151 16.2589494,38.5225893 L16.2580756,41.8577509 L16.2580756,41.8577509 L16.2579923,42.1455893 L16.2561735,48.9927359 L16.2561735,48.9927359 L16.1594946,48.9929051 C16.1385703,48.9929415 16.1144387,48.9929833 16.0872863,48.9930302 L15.6284072,48.9938096 C15.5800752,48.9938905 15.529469,48.9939748 15.4767754,48.9940621 L14.9512095,48.9949189 C14.8876707,48.9950208 14.8226043,48.9951245 14.756197,48.9952296 L14.3431558,48.995874 C14.2721315,48.9959832 14.2001396,48.9960929 14.1273667,48.9962029 L13.6828514,48.9968619 C13.6077013,48.996971 13.5321436,48.9970796 13.4563649,48.9971871 L13.0005337,48.9978169 C12.9246175,48.9979188 12.8488537,48.9980189 12.7734288,48.9981167 L12.1087956,48.9989263 C12.0370842,48.9990071 11.9662716,48.9990845 11.8965447,48.9991581 L10.799014,49 L10.799014,49 L10.6558737,49 C7.7002641,48.9943322 5.3062455,46.6024314 5.3025765,43.6514385 L5.3025765,43.6514385 L5.2993026,27.2385534 C5.2993026,26.1476297 6.1850555,25.2632613 7.2776871,25.2632613 Z M4.4748089,36.8943014 L4.4748089,40.0327586 L4.4104209,40.049466 C3.4187732,40.2877287 2.3176295,40.5361611 2.1182814,40.580109 C1.9994667,40.6038486 1.878588,40.6157715 1.7574176,40.6157037 C0.7873602,40.6151265 0.0010049,39.8303254 4.61939376e-08,38.8617846 C-0.0012892,38.5229236 0.0971235,38.1911418 0.2830419,37.9076442 L0.3026857,37.8760454 L4.4748089,36.8943014 Z M4.4748089,32.8735459 L4.4748089,36.0120031 L4.4104209,36.0287105 C3.4715204,36.2535346 2.3492778,36.5132264 2.1182814,36.5593535 C1.9993808,36.5823093 1.8785198,36.5936223 1.7574176,36.5931613 C0.7875907,36.5933686 0.0009936,35.8089764 1.21528252e-05,34.8406659 C-0.0009263,34.5018568 0.0974563,34.1701769 0.2830419,33.8865255 L0.3026857,33.8571059 L0.3357891,33.8487522 L4.4748089,32.8735459 Z M4.4748089,28.856161 L4.4748089,31.9946181 L4.4104209,32.0095095 C3.4715204,32.23506 2.3492778,32.4918462 2.1182814,32.5408789 C1.9996381,32.5659356 1.878686,32.5784745 1.7574176,32.5782931 C1.1129599,32.5774721 0.5205077,32.2249681 0.2131038,31.6594355 C-0.0943,31.0939029 -0.0674694,30.4058298 0.2830419,29.8658717 L0.3026857,29.8404474 L0.3357891,29.8317304 L4.4748089,28.856161 Z M4.4745907,10.415359 L4.4745907,27.9756096 L1.2690148,28.7325295 L1.2679234,11.1719156 L4.4745907,10.415359 Z M11.9279912,14.9929445 C14.2124915,14.4579431 14.9469511,15.7890906 14.9469511,17.6933761 L14.9469511,17.6933761 L14.9469511,25.547691 L11.905801,26.2595735 L11.9036183,18.8349304 C11.9036183,17.673763 11.3583212,17.4405852 10.705347,17.5836881 C9.8373824,17.774734 9.2298799,18.7484875 9.2298799,19.9674045 L9.2298799,19.9674045 L9.2298799,25.0562742 C8.3969981,24.3228879 7.2225127,24.1178812 6.1898211,24.5256313 L6.1898211,24.5256313 L6.1865472,16.6440759 L9.0738209,15.9619763 L9.0738209,17.196148 C9.658473,16.081801 10.7006536,15.2773165 11.9279912,14.9929445 Z M20.2492108,10.8856772 L20.2492108,13.3333178 L22.3994785,12.8233775 L22.3994785,15.0661703 L20.2492108,15.5757474 L20.2490085,15.8728857 C20.248984,15.9105086 20.2489578,15.9512951 20.2489302,15.9950059 L20.2480643,17.7112025 C20.2480358,17.7881519 20.2480086,17.8658704 20.2479831,17.9441185 L20.2479951,20.2109648 C20.2480314,20.2758578 20.2480724,20.3388857 20.2481182,20.3998091 L20.2489228,21.014547 C20.2490126,21.0548028 20.2491085,21.0919963 20.2492108,21.1258879 C20.2492108,23.6494384 20.9200099,24.1339543 20.9200099,24.1339543 L17.6682347,24.904676 C17.6682347,24.904676 17.2029679,24.2080482 17.2029679,21.7451529 L17.2029679,16.2945307 L15.730411,16.6442975 L15.730411,14.3989622 L17.2062418,14.0510115 L17.2062418,11.6033709 L20.2492108,10.8856772 Z M31.6529052,15.2768331 C31.6445869,15.7183697 31.6411012,16.0542313 31.6397491,16.286891 L31.6390498,16.4610974 C31.6389489,16.51078 31.6389593,16.5520957 31.6390179,16.5851021 L31.6394456,16.6838905 L31.6394456,16.6838905 L25.7579486,18.0640707 L25.7579486,18.1588673 C25.7579486,20.0072191 26.1460954,20.88436 27.3192664,20.6359275 C28.3327405,20.4223628 28.6146653,19.7885695 28.6946956,19.0047724 C28.7077915,18.878377 28.7139756,18.5569403 28.7139756,18.5569403 L31.4691994,17.8977226 C31.4691994,17.8977226 31.4757473,18.1229099 31.4717458,18.3757008 C31.4477367,19.4260906 31.1418029,22.0317255 27.3123546,22.9357436 C23.684801,23.7954506 22.7175261,21.5835302 22.7175261,18.3924083 C22.7175261,16.4463542 22.9950856,15.0265846 23.5909473,13.9369687 C24.2999427,12.6439577 25.4625642,11.8013214 27.1562956,11.4163238 C30.494649,10.6583143 31.6994683,12.6312455 31.6529052,15.2768331 Z M38.8688669,8.7766928 L38.8688669,11.5697417 C38.3536296,11.5764564 37.8445182,11.6822631 37.3693907,11.8813718 C36.3118999,12.2983315 35.7796986,13.2081609 35.7796986,14.597058 L35.7815175,20.6415209 L32.7545546,21.3450496 L32.7494617,10.3984045 L35.6112713,9.7203002 L35.6112713,11.1553244 C35.6112713,11.1553244 36.3526426,9.2681096 38.0729295,8.830084 C38.3298514,8.7474342 38.603181,8.7290994 38.8688669,8.7766928 Z M47.8632502,10.1502191 L47.8632502,14.9986468 C47.8632502,16.6966442 48.0917737,17.3452287 48.2178557,17.5738511 L48.2508057,17.6282879 C48.265601,17.6503363 48.2776624,17.6650375 48.286025,17.6742266 L48.2990513,17.6870926 L48.2990513,17.6870926 L45.5270939,18.3419518 C45.3742009,18.0221587 45.2499131,17.6895003 45.1556808,17.3478588 C45.1556808,17.3478588 45.1487111,17.3653872 45.1336907,17.3972918 L45.0925953,17.4793355 C44.8914598,17.8601544 44.1747643,18.9624621 42.4553868,19.3658276 C40.257101,19.8833952 39.0930244,18.5231912 39.0930244,16.6584951 C39.0930244,14.1225956 40.5808598,13.3206383 42.8202521,12.3955543 C44.8341046,11.5638142 44.8777575,11.1508497 44.8861243,10.4280711 C44.8974013,9.8197022 44.6147489,9.299229 43.612188,9.5545624 C42.9238818,9.6930091 42.4213827,10.2860118 42.3986381,10.9866809 C42.3822258,11.1734984 42.3759112,11.3610634 42.3797219,11.5485595 L39.5561086,12.2143149 C39.537128,11.6524761 39.6028568,11.0909809 39.7510914,10.5486553 C40.2025349,9.0322731 41.5419505,8.0120294 43.8540976,7.4777543 C46.8581428,6.7865746 47.8596124,8.1028307 47.8632502,10.1502191 Z M44.8668443,13.1956957 C44.3996282,13.5227704 43.9064045,13.811148 43.3921047,14.0579451 C42.4681189,14.5086829 42.0505065,15.0647502 42.0505065,15.9211884 C42.0505065,16.6628536 42.5106805,17.1499119 43.3469968,16.9436113 C44.2440633,16.7176976 44.8668443,15.8819622 44.8668443,14.7207948 L44.8668443,13.1956957 Z M57.3786741,5.842604 C57.8177493,6.4113835 57.9872679,7.1784732 57.9872679,8.2528345 L57.9898143,8.450055 L55.0752576,9.1415979 C55.0752576,9.1415979 55.0745449,9.0135124 55.073934,8.9013529 L55.0730749,8.736624 L55.0730749,8.736624 C55.0752576,7.4624997 54.720578,6.9779838 53.793682,7.2097088 C52.691447,7.4861081 52.2461877,8.5306866 52.2461877,10.6074946 L52.2469268,11.1328974 C52.2472487,11.2296198 52.2476376,11.3034975 52.2480132,11.361565 L52.2487225,11.4587043 C52.2488298,11.4720756 52.2489296,11.4842114 52.2490191,11.495372 L52.2494616,11.5765264 L52.2494616,11.5765264 C52.2494616,13.6871124 52.5382981,14.6532386 53.8085967,14.3877355 C54.910468,14.160369 55.0614342,13.1942428 55.0792591,12.347248 C55.0808961,12.2475482 55.0843747,11.9831801 55.0860116,11.8572273 L55.0868983,11.7886383 L55.0868983,11.7886383 L57.9970898,11.1021802 L57.9975445,11.1394485 C57.9979538,11.175227 57.9985676,11.2344877 57.9990792,11.3071748 L57.999875,11.4674718 C58,11.4961785 58,11.5256322 58,11.5554604 C57.9927245,14.323085 56.5318084,16.0671969 53.7947733,16.7031694 C50.0238927,17.5857583 49.2854316,15.4101585 49.1682964,11.9909436 C49.0544352,8.657082 49.9205809,6.0111313 53.6459898,5.1684949 C56.0203422,4.6298615 56.9221378,5.2465841 57.3786741,5.842604 Z M27.2785237,13.4553584 C26.3039733,13.6761872 25.7928709,14.6306908 25.7706807,16.2120868 L28.7292541,15.5085581 C28.7323098,15.4656272 28.733794,15.3917076 28.734347,15.2860933 L28.734347,15.0323959 L28.734347,15.0323959 C28.7292541,13.83854 28.3596598,13.2083788 27.2785237,13.4553584 Z M56.8320628,0.1430277 C57.5346701,0.4337222 57.9926135,1.1184792 57.9922448,1.877833 C57.9912424,2.9131964 57.1510634,3.7523871 56.1140795,3.75378992 C55.3535372,3.7544511 54.6675308,3.2974888 54.3761091,2.5960924 C54.0846875,1.8946959 54.2452779,1.0870818 54.7829586,0.5500336 C55.3206393,0.0129854 56.1294555,-0.1476667 56.8320628,0.1430277 Z M56.1140795,0.236144859 C55.2061817,0.2359444 54.4700223,0.9706279 54.4698214,1.8771065 C54.4696205,2.7835852 55.2054542,3.5185939 56.113352,3.51879464 C57.0212498,3.5189951 57.7574092,2.7843116 57.7576102,1.877833 C57.7568786,0.97174 57.0215906,0.2372764 56.1140795,0.236144859 Z M56.6730143,0.9136357 C56.7863924,1.0282507 56.8412727,1.1882084 56.8220964,1.3481598 C56.8220964,1.6452617 56.6900464,1.8737179 56.43977,1.9125808 L56.43977,1.9169393 C56.6674924,1.9401844 56.7871741,2.0654903 56.7988148,2.3876534 C56.8031801,2.5329355 56.8053628,2.7130854 56.8122745,2.8532826 C56.812478,2.9334339 56.8534472,3.0079933 56.9210429,3.0512295 L56.5070681,3.0512295 C56.4675781,2.9906467 56.4461323,2.9201121 56.4452266,2.8478345 C56.4324945,2.7109061 56.4357684,2.581605 56.4295843,2.415257 C56.4234001,2.1653717 56.3466438,2.0560469 56.095276,2.0560469 L55.7955263,2.0560469 L55.7955263,3.0512295 L55.4295697,3.0512295 L55.4295697,0.759404 L56.2396943,0.759404 C56.4001218,0.7422447 56.5596363,0.7990208 56.6730143,0.9136357 Z M56.1080081,1.03544 L55.7955263,1.03544 L55.7955263,1.7800109 L56.0887281,1.7800109 C56.1894753,1.7892348 56.289052,1.7528397 56.3600239,1.6808529 C56.4309957,1.6088661 56.4658737,1.5088837 56.4550485,1.4084519 C56.4550485,1.1640147 56.3491902,1.03544 56.1080081,1.03544 Z"></path>
            </g>
        </g>
    </g>
</svg>