<?xml version="1.0" encoding="UTF-8"?>
<svg width="237px" height="120px" viewBox="0 0 237 120" version="1.1" xmlns="http://www.w3.org/2000/svg" xmlns:xlink="http://www.w3.org/1999/xlink">
    <title>Artboard Copy</title>
    <g id="Artboard-Copy" stroke="none" stroke-width="1" fill="none" fill-rule="evenodd">
        <g id="mastercard" transform="translate(36.000000, 6.000000)" fill-rule="nonzero">
            <path d="M175.073683,52.7999997 C175.073683,81.7010522 151.730525,105.322105 122.551578,105.322105 C93.6505258,105.322105 70.0294733,81.7010522 70.0294733,52.7999997 L70.0294733,52.7999997 C70.0294733,23.8989472 93.3726311,0.277894735 122.273684,0.277894735 C151.730525,0.277894735 175.073683,23.8989472 175.073683,52.7999997 L175.073683,52.7999997 Z" id="Path" fill="#FFB600"></path>
            <path d="M122.551578,0.277894735 C151.452631,0.277894735 175.073683,23.8989472 175.073683,52.7999997 L175.073683,52.7999997 C175.073683,81.7010522 151.730525,105.322105 122.551578,105.322105 C93.6505258,105.322105 70.0294733,81.7010522 70.0294733,52.7999997" id="Path" fill="#F7981D"></path>
            <path d="M122.551578,0.277894735 C151.452631,0.277894735 175.073683,23.8989472 175.073683,52.7999997 L175.073683,52.7999997 C175.073683,81.7010522 151.730525,105.322105 122.551578,105.322105" id="Path" fill="#FF8500"></path>
            <path d="M51.9663155,0.277894735 C23.3431578,0.555789471 0,23.8989472 0,52.7999997 C0,81.7010522 23.3431578,105.322105 52.522105,105.322105 C66.138947,105.322105 78.3663154,100.042105 87.8147364,91.7052627 L87.8147364,91.7052627 L87.8147364,91.7052627 C89.7599995,90.0378942 91.4273679,88.0926311 93.0947363,86.147368 L82.2568417,86.147368 C80.867368,84.4799995 79.4778943,82.5347364 78.3663154,80.867368 L96.9852626,80.867368 C98.0968416,79.1999996 99.2084205,77.2547364 100.042105,75.3094733 L75.3094733,75.3094733 C74.4757891,73.6421049 73.6421049,71.6968417 73.0863154,69.7515786 L101.987368,69.7515786 C103.654736,64.4715786 104.766315,58.9136839 104.766315,53.0778944 C104.766315,49.1873682 104.210526,45.5747366 103.654736,41.962105 L71.418947,41.962105 C71.6968417,40.0168419 72.2526312,38.3494735 72.8084207,36.4042103 L101.709473,36.4042103 C101.153684,34.4589472 100.319999,32.513684 99.4863153,30.8463156 L75.0315785,30.8463156 C75.8652627,28.9010525 76.9768417,27.2336841 78.0884206,25.2884209 L96.7073679,25.2884209 C95.595789,23.3431578 94.2063153,21.3978946 92.5389469,19.7305262 L82.2568417,19.7305262 C83.9242101,17.7852631 85.5915785,16.1178946 87.5368416,14.4505262 C78.3663154,5.83578944 65.8610523,0.833684206 52.2442102,0.833684206 C52.2442102,0.277894735 52.2442102,0.277894735 51.9663155,0.277894735 Z" id="Path" fill="#FF5050"></path>
            <path d="M0,52.7999997 C0,81.7010522 23.3431578,105.322105 52.522105,105.322105 C66.138947,105.322105 78.3663154,100.042105 87.8147364,91.7052627 L87.8147364,91.7052627 L87.8147364,91.7052627 C89.7599995,90.0378942 91.4273679,88.0926311 93.0947363,86.147368 L82.2568417,86.147368 C80.867368,84.4799995 79.4778943,82.5347364 78.3663154,80.867368 L96.9852626,80.867368 C98.0968416,79.1999996 99.2084205,77.2547364 100.042105,75.3094733 L75.3094733,75.3094733 C74.4757891,73.6421049 73.6421049,71.6968417 73.0863154,69.7515786 L101.987368,69.7515786 C103.654736,64.4715786 104.766315,58.9136839 104.766315,53.0778944 C104.766315,49.1873682 104.210526,45.5747366 103.654736,41.962105 L71.418947,41.962105 C71.6968417,40.0168419 72.2526312,38.3494735 72.8084207,36.4042103 L101.709473,36.4042103 C101.153684,34.4589472 100.319999,32.513684 99.4863153,30.8463156 L75.0315785,30.8463156 C75.8652627,28.9010525 76.9768417,27.2336841 78.0884206,25.2884209 L96.7073679,25.2884209 C95.595789,23.3431578 94.2063153,21.3978946 92.5389469,19.7305262 L82.2568417,19.7305262 C83.9242101,17.7852631 85.5915785,16.1178946 87.5368416,14.4505262 C78.3663154,5.83578944 65.8610523,0.833684206 52.2442102,0.833684206 L51.9663155,0.833684206" id="Path" fill="#E52836"></path>
            <path d="M52.522105,105.322105 C66.138947,105.322105 78.3663154,100.042105 87.8147364,91.7052627 L87.8147364,91.7052627 L87.8147364,91.7052627 C89.7599995,90.0378942 91.4273679,88.0926311 93.0947363,86.147368 L82.2568417,86.147368 C80.867368,84.4799995 79.4778943,82.5347364 78.3663154,80.867368 L96.9852626,80.867368 C98.0968416,79.1999996 99.2084205,77.2547364 100.042105,75.3094733 L75.3094733,75.3094733 C74.4757891,73.6421049 73.6421049,71.6968417 73.0863154,69.7515786 L101.987368,69.7515786 C103.654736,64.4715786 104.766315,58.9136839 104.766315,53.0778944 C104.766315,49.1873682 104.210526,45.5747366 103.654736,41.962105 L71.418947,41.962105 C71.6968417,40.0168419 72.2526312,38.3494735 72.8084207,36.4042103 L101.709473,36.4042103 C101.153684,34.4589472 100.319999,32.513684 99.4863153,30.8463156 L75.0315785,30.8463156 C75.8652627,28.9010525 76.9768417,27.2336841 78.0884206,25.2884209 L96.7073679,25.2884209 C95.595789,23.3431578 94.2063153,21.3978946 92.5389469,19.7305262 L82.2568417,19.7305262 C83.9242101,17.7852631 85.5915785,16.1178946 87.5368416,14.4505262 C78.3663154,5.83578944 65.8610523,0.833684206 52.2442102,0.833684206 L51.9663155,0.833684206" id="Path" fill="#CB2026"></path>
            <g id="Group" transform="translate(4.863158, 38.905263)" fill="#FFFFFF">
                <path d="M66.2778944,27.2336841 L67.1115786,22.5094736 C66.8336838,22.5094736 66.2778944,22.7873683 65.7221049,22.7873683 C63.7768418,22.7873683 63.498947,21.6757894 63.7768418,21.1199999 L65.4442102,11.3936841 L68.5010523,11.3936841 L69.3347365,6.11368418 L66.5557891,6.11368418 L67.1115786,2.77894735 L61.5536839,2.77894735 C61.5536839,2.77894735 58.2189471,21.1199999 58.2189471,23.3431578 C58.2189471,26.6778946 60.1642102,28.0673683 62.6652628,28.0673683 C64.3326312,28.0673683 65.7221049,27.5115788 66.2778944,27.2336841 Z" id="Path"></path>
                <path d="M68.2231575,18.3410525 C68.2231575,26.1221051 73.5031575,28.0673683 77.9494733,28.0673683 C82.1178943,28.0673683 83.7852627,27.2336841 83.7852627,27.2336841 L84.8968416,21.9536841 C84.8968416,21.9536841 81.8399996,23.3431578 79.0610522,23.3431578 C72.947368,23.3431578 74.058947,18.896842 74.058947,18.896842 L85.4526311,18.896842 C85.4526311,18.896842 86.2863153,15.2842104 86.2863153,13.8947368 C86.2863153,10.2821052 84.3410522,5.83578944 78.227368,5.83578944 C72.3915786,5.27999997 68.2231575,11.3936841 68.2231575,18.3410525 Z M77.9494733,10.2821052 C81.0063154,10.2821052 80.4505259,13.8947368 80.4505259,14.1726315 L74.3368417,14.1726315 C74.3368417,13.8947368 74.8926312,10.2821052 77.9494733,10.2821052 Z" id="Shape"></path>
                <path d="M113.242105,27.2336841 L114.353684,21.1199999 C114.353684,21.1199999 111.574736,22.5094736 109.629473,22.5094736 C105.738947,22.5094736 104.071578,19.4526315 104.071578,16.1178946 C104.071578,9.448421 107.406315,5.83578944 111.296842,5.83578944 C114.075789,5.83578944 116.298947,7.50315785 116.298947,7.50315785 L117.132631,1.66736841 C117.132631,1.66736841 113.797894,0.277894735 110.741052,0.277894735 C104.349473,0.277894735 97.9578942,5.83578944 97.9578942,16.3957894 C97.9578942,23.3431578 101.292631,28.0673683 107.962105,28.0673683 C110.185263,28.0673683 113.242105,27.2336841 113.242105,27.2336841 Z" id="Path"></path>
                <path d="M35.7094735,5.27999997 C31.8189472,5.27999997 29.0399998,6.39157891 29.0399998,6.39157891 L28.2063156,11.1157894 C28.2063156,11.1157894 30.7073683,10.0042105 34.3199998,10.0042105 C36.265263,10.0042105 37.9326314,10.2821052 37.9326314,11.9494736 C37.9326314,13.0610526 37.6547366,13.3389473 37.6547366,13.3389473 C37.6547366,13.3389473 35.9873682,13.3389473 35.153684,13.3389473 C30.4294735,13.3389473 25.1494735,15.2842104 25.1494735,21.6757894 C25.1494735,26.6778946 28.4842104,27.7894735 30.4294735,27.7894735 C34.3199998,27.7894735 35.9873682,25.2884209 36.265263,25.2884209 L35.9873682,27.5115788 L40.9894735,27.5115788 L43.2126313,12.2273684 C43.2126313,5.55789471 37.6547366,5.27999997 35.7094735,5.27999997 Z M36.8210524,17.7852631 C36.8210524,18.6189473 36.265263,23.065263 32.9305261,23.065263 C31.2631577,23.065263 30.7073683,21.6757894 30.7073683,20.8421052 C30.7073683,19.4526315 31.5410525,17.5073683 35.7094735,17.5073683 C36.5431577,17.7852631 36.8210524,17.7852631 36.8210524,17.7852631 Z" id="Shape"></path>
                <path d="M48.4926313,27.7894735 C49.882105,27.7894735 56.8294734,28.0673683 56.8294734,20.5642104 C56.8294734,13.616842 50.1599997,15.0063157 50.1599997,12.2273684 C50.1599997,10.8378947 51.2715787,10.2821052 53.2168418,10.2821052 C54.050526,10.2821052 57.1073681,10.5599999 57.1073681,10.5599999 L57.9410523,5.55789471 C57.9410523,5.55789471 55.9957892,5.00210524 52.6610523,5.00210524 C48.4926313,5.00210524 44.3242103,6.66947365 44.3242103,12.2273684 C44.3242103,18.6189473 51.2715787,18.0631578 51.2715787,20.5642104 C51.2715787,22.2315788 49.3263155,22.5094736 47.9368418,22.5094736 C45.4357892,22.5094736 42.9347366,21.6757894 42.9347366,21.6757894 L42.1010524,26.6778946 C42.3789471,27.2336841 43.7684208,27.7894735 48.4926313,27.7894735 Z" id="Path"></path>
                <path d="M159.372631,0.833684206 L158.261052,8.33684206 C158.261052,8.33684206 156.037894,5.55789471 152.981052,5.55789471 C147.978947,5.55789471 143.532631,11.6715789 143.532631,18.896842 C143.532631,23.3431578 145.755789,28.0673683 150.479999,28.0673683 C153.814736,28.0673683 155.759999,25.8442104 155.759999,25.8442104 L155.482104,27.7894735 L161.039999,27.7894735 L165.20842,1.11157894 L159.372631,0.833684206 Z M156.871578,15.5621052 C156.871578,18.6189473 155.482104,22.5094736 152.425262,22.5094736 C150.479999,22.5094736 149.36842,20.8421052 149.36842,18.0631578 C149.36842,13.616842 151.313683,10.8378947 153.814736,10.8378947 C155.759999,10.8378947 156.871578,12.2273684 156.871578,15.5621052 Z" id="Shape"></path>
                <polygon id="Path" points="5.41894734 27.5115788 8.75368416 7.50315785 9.30947363 27.5115788 13.1999999 27.5115788 20.425263 7.50315785 17.368421 27.5115788 23.2042104 27.5115788 27.6505262 0.833684206 18.4799999 0.833684206 12.9221052 17.2294736 12.6442105 0.833684206 4.58526313 0.833684206 0.138947368 27.5115788"></polygon>
                <path d="M91.5663153,27.5115788 C93.2336837,18.3410525 93.5115784,10.8378947 97.4021047,12.2273684 C97.9578942,8.6147368 98.7915784,7.22526312 99.3473679,5.83578944 C99.3473679,5.83578944 99.0694731,5.83578944 98.2357889,5.83578944 C95.7347363,5.83578944 93.7894732,9.17052627 93.7894732,9.17052627 L94.3452626,6.11368418 L89.0652627,6.11368418 L85.4526311,27.7894735 L91.5663153,27.7894735 L91.5663153,27.5115788 Z" id="Path"></path>
                <path d="M126.025262,5.27999997 C122.134736,5.27999997 119.355789,6.39157891 119.355789,6.39157891 L118.522105,11.1157894 C118.522105,11.1157894 121.023157,10.0042105 124.635789,10.0042105 C126.581052,10.0042105 128.24842,10.2821052 128.24842,11.9494736 C128.24842,13.0610526 127.970526,13.3389473 127.970526,13.3389473 C127.970526,13.3389473 126.303157,13.3389473 125.469473,13.3389473 C120.745263,13.3389473 115.465263,15.2842104 115.465263,21.6757894 C115.465263,26.6778946 118.799999,27.7894735 120.745263,27.7894735 C124.635789,27.7894735 126.303157,25.2884209 126.581052,25.2884209 L126.303157,27.5115788 L131.305262,27.5115788 L133.52842,12.2273684 C133.806315,5.55789471 127.970526,5.27999997 126.025262,5.27999997 Z M127.414736,17.7852631 C127.414736,18.6189473 126.858947,23.065263 123.52421,23.065263 C121.856841,23.065263 121.301052,21.6757894 121.301052,20.8421052 C121.301052,19.4526315 122.134736,17.5073683 126.303157,17.5073683 C127.136841,17.7852631 127.136841,17.7852631 127.414736,17.7852631 Z" id="Shape"></path>
                <path d="M138.252631,27.5115788 C139.919999,18.3410525 140.197894,10.8378947 144.08842,12.2273684 C144.64421,8.6147368 145.477894,7.22526312 146.033683,5.83578944 C146.033683,5.83578944 145.755789,5.83578944 144.922104,5.83578944 C142.421052,5.83578944 140.475789,9.17052627 140.475789,9.17052627 L141.031578,6.11368418 L135.751578,6.11368418 L132.138947,27.7894735 L138.252631,27.7894735 L138.252631,27.5115788 Z" id="Path"></path>
            </g>
            <g id="Group" transform="translate(4.863158, 38.905263)" fill="#DCE5E5">
                <path d="M57.6631576,23.3431578 C57.6631576,26.6778946 59.6084207,28.0673683 62.1094733,28.0673683 C64.0547365,28.0673683 65.7221049,27.5115788 66.2778944,27.2336841 L67.1115786,22.5094736 C66.8336838,22.5094736 66.2778944,22.7873683 65.7221049,22.7873683 C63.7768418,22.7873683 63.498947,21.6757894 63.7768418,21.1199999 L65.4442102,11.3936841 L68.5010523,11.3936841 L69.3347365,6.11368418 L66.5557891,6.11368418 L67.1115786,2.77894735" id="Path"></path>
                <path d="M71.0021049,18.3410525 C71.0021049,26.1221051 73.5031575,28.0673683 77.9494733,28.0673683 C82.1178943,28.0673683 83.7852627,27.2336841 83.7852627,27.2336841 L84.8968416,21.9536841 C84.8968416,21.9536841 81.8399996,23.3431578 79.0610522,23.3431578 C72.947368,23.3431578 74.058947,18.896842 74.058947,18.896842 L85.4526311,18.896842 C85.4526311,18.896842 86.2863153,15.2842104 86.2863153,13.8947368 C86.2863153,10.2821052 84.3410522,5.83578944 78.227368,5.83578944 C72.3915786,5.27999997 71.0021049,11.3936841 71.0021049,18.3410525 Z M77.9494733,10.2821052 C81.0063154,10.2821052 81.5621048,13.8947368 81.5621048,14.1726315 L74.3368417,14.1726315 C74.3368417,13.8947368 74.8926312,10.2821052 77.9494733,10.2821052 Z" id="Shape"></path>
                <path d="M113.242105,27.2336841 L114.353684,21.1199999 C114.353684,21.1199999 111.574736,22.5094736 109.629473,22.5094736 C105.738947,22.5094736 104.071578,19.4526315 104.071578,16.1178946 C104.071578,9.448421 107.406315,5.83578944 111.296842,5.83578944 C114.075789,5.83578944 116.298947,7.50315785 116.298947,7.50315785 L117.132631,1.66736841 C117.132631,1.66736841 113.797894,0.277894735 110.741052,0.277894735 C104.349473,0.277894735 100.736842,5.83578944 100.736842,16.3957894 C100.736842,23.3431578 101.292631,28.0673683 107.962105,28.0673683 C110.185263,28.0673683 113.242105,27.2336841 113.242105,27.2336841 Z" id="Path"></path>
                <path d="M28.2063156,11.3936841 C28.2063156,11.3936841 30.7073683,10.2821052 34.3199998,10.2821052 C36.265263,10.2821052 37.9326314,10.5599999 37.9326314,12.2273684 C37.9326314,13.3389473 37.6547366,13.616842 37.6547366,13.616842 C37.6547366,13.616842 35.9873682,13.616842 35.153684,13.616842 C30.4294735,13.616842 25.1494735,15.5621052 25.1494735,21.9536841 C25.1494735,26.9557893 28.4842104,28.0673683 30.4294735,28.0673683 C34.3199998,28.0673683 35.9873682,25.5663157 36.265263,25.5663157 L35.9873682,27.7894735 L40.9894735,27.7894735 L43.2126313,12.5052631 C43.2126313,6.11368418 37.6547366,5.83578944 35.4315788,5.83578944 M39.5999998,17.7852631 C39.5999998,18.6189473 36.265263,23.065263 32.9305261,23.065263 C31.2631577,23.065263 30.7073683,21.6757894 30.7073683,20.8421052 C30.7073683,19.4526315 31.5410525,17.5073683 35.7094735,17.5073683 C36.5431577,17.7852631 39.5999998,17.7852631 39.5999998,17.7852631 Z" id="Shape"></path>
                <path d="M42.3789471,27.2336841 C42.3789471,27.2336841 44.0463156,27.7894735 48.7705261,27.7894735 C50.1599997,27.7894735 57.1073681,28.0673683 57.1073681,20.5642104 C57.1073681,13.616842 50.4378945,15.0063157 50.4378945,12.2273684 C50.4378945,10.8378947 51.5494734,10.2821052 53.4947366,10.2821052 C54.3284208,10.2821052 57.3852628,10.5599999 57.3852628,10.5599999 L58.2189471,5.55789471 C58.2189471,5.55789471 56.2736839,5.00210524 52.9389471,5.00210524 C48.7705261,5.00210524 47.3810524,6.66947365 47.3810524,12.2273684 C47.3810524,18.6189473 51.5494734,18.0631578 51.5494734,20.5642104 C51.5494734,22.2315788 49.6042103,22.5094736 48.2147366,22.5094736" id="Path"></path>
                <path d="M158.261052,8.33684206 C158.261052,8.33684206 156.037894,5.55789471 152.981052,5.55789471 C147.978947,5.55789471 146.311578,11.6715789 146.311578,18.896842 C146.311578,23.3431578 145.755789,28.0673683 150.479999,28.0673683 C153.814736,28.0673683 155.759999,25.8442104 155.759999,25.8442104 L155.482104,27.7894735 L161.039999,27.7894735 L165.20842,1.11157894 M157.983157,15.5621052 C157.983157,18.6189473 155.482104,22.5094736 152.425262,22.5094736 C150.479999,22.5094736 149.36842,20.8421052 149.36842,18.0631578 C149.36842,13.616842 151.313683,10.8378947 153.814736,10.8378947 C155.759999,10.8378947 157.983157,12.2273684 157.983157,15.5621052 Z" id="Shape"></path>
                <polygon id="Path" points="5.41894734 27.5115788 8.75368416 7.50315785 9.30947363 27.5115788 13.1999999 27.5115788 20.425263 7.50315785 17.368421 27.5115788 23.2042104 27.5115788 27.6505262 0.833684206 20.7031578 0.833684206 12.9221052 17.2294736 12.6442105 0.833684206 9.58736837 0.833684206 0.138947368 27.5115788"></polygon>
                <path d="M85.7305259,27.5115788 L91.5663153,27.5115788 C93.2336837,18.3410525 93.5115784,10.8378947 97.4021047,12.2273684 C97.9578942,8.6147368 98.7915784,7.22526312 99.3473679,5.83578944 C99.3473679,5.83578944 99.0694731,5.83578944 98.2357889,5.83578944 C95.7347363,5.83578944 93.7894732,9.17052627 93.7894732,9.17052627 L94.3452626,6.11368418" id="Path"></path>
                <path d="M118.522105,11.3936841 C118.522105,11.3936841 121.023157,10.2821052 124.635789,10.2821052 C126.581052,10.2821052 128.24842,10.5599999 128.24842,12.2273684 C128.24842,13.3389473 127.970526,13.616842 127.970526,13.616842 C127.970526,13.616842 126.303157,13.616842 125.469473,13.616842 C120.745263,13.616842 115.465263,15.5621052 115.465263,21.9536841 C115.465263,26.9557893 118.799999,28.0673683 120.745263,28.0673683 C124.635789,28.0673683 126.303157,25.5663157 126.581052,25.5663157 L126.303157,27.7894735 L131.305262,27.7894735 L133.52842,12.5052631 C133.52842,6.11368418 127.970526,5.83578944 125.747368,5.83578944 M129.915789,17.7852631 C129.915789,18.6189473 126.581052,23.065263 123.246315,23.065263 C121.578947,23.065263 121.023157,21.6757894 121.023157,20.8421052 C121.023157,19.4526315 121.856841,17.5073683 126.025262,17.5073683 C127.136841,17.7852631 129.915789,17.7852631 129.915789,17.7852631 Z" id="Shape"></path>
                <path d="M132.416841,27.5115788 L138.252631,27.5115788 C139.919999,18.3410525 140.197894,10.8378947 144.08842,12.2273684 C144.64421,8.6147368 145.477894,7.22526312 146.033683,5.83578944 C146.033683,5.83578944 145.755789,5.83578944 144.922104,5.83578944 C142.421052,5.83578944 140.475789,9.17052627 140.475789,9.17052627 L141.031578,6.11368418" id="Path"></path>
            </g>
        </g>
    </g>
</svg>