<?xml version="1.0" encoding="UTF-8"?>
<svg width="265px" height="180px" viewBox="0 0 265 180" version="1.1" xmlns="http://www.w3.org/2000/svg" xmlns:xlink="http://www.w3.org/1999/xlink">
    <title>add-card copy</title>
    <defs>
        <linearGradient x1="50%" y1="0%" x2="50%" y2="100%" id="linearGradient-1">
            <stop stop-color="#EEEEEE" offset="0%"></stop>
            <stop stop-color="#D6D6D6" stop-opacity="0.566160402" offset="100%"></stop>
        </linearGradient>
    </defs>
    <g id="Page-1" stroke="none" stroke-width="1" fill="none" fill-rule="evenodd">
        <g id="Group-21" transform="translate(1.000000, 1.000000)">
            <g id="Rectangle">
                <g id="path-2-link" fill="#000000" fill-rule="nonzero">
                    <rect id="path-2" x="0" y="0" width="199" height="130" rx="12"></rect>
                </g>
                <g id="path-2-link">
                    <rect id="path-2" stroke="url(#linearGradient-1)" fill="#FFFFFF" x="0" y="0" width="263" height="178" rx="12"></rect>
                    <rect id="Rectangle-Copy-33" fill="#EDEDED" fill-rule="nonzero" x="101" y="150" width="60" height="5" rx="1"></rect>
                </g>
            </g>
            <rect id="Rectangle" fill="#EDEDED" fill-rule="nonzero" x="17" y="19" width="229" height="12" rx="1"></rect>
            <path d="M35,129 L35,134 L18,134 C17.4477153,134 17,133.552285 17,133 L17,130 C17,129.447715 17.4477153,129 18,129 L35,129 Z M224,129 L224,134 L38,134 L38,129 L224,129 Z M245,129 C245.552285,129 246,129.447715 246,130 L246,133 C246,133.552285 245.552285,134 245,134 L230,134 L230,129 L245,129 Z M35,116 L35,121 L18,121 C17.4477153,121 17,120.552285 17,120 L17,117 C17,116.447715 17.4477153,116 18,116 L35,116 Z M224,116 L224,121 L38,121 L38,116 L224,116 Z M245,116 C245.552285,116 246,116.447715 246,117 L246,120 C246,120.552285 245.552285,121 245,121 L230,121 L230,116 L245,116 Z M35,103 L35,108 L18,108 C17.4477153,108 17,107.552285 17,107 L17,104 C17,103.447715 17.4477153,103 18,103 L35,103 Z M224,103 L224,108 L38,108 L38,103 L224,103 Z M245,103 C245.552285,103 246,103.447715 246,104 L246,107 C246,107.552285 245.552285,108 245,108 L230,108 L230,103 L245,103 Z M35,90 L35,95 L18,95 C17.4477153,95 17,94.5522847 17,94 L17,91 C17,90.4477153 17.4477153,90 18,90 L35,90 Z M224,90 L224,95 L38,95 L38,90 L224,90 Z M245,90 C245.552285,90 246,90.4477153 246,91 L246,94 C246,94.5522847 245.552285,95 245,95 L230,95 L230,90 L245,90 Z M35,78 L35,83 L18,83 C17.4477153,83 17,82.5522847 17,82 L17,79 C17,78.4477153 17.4477153,78 18,78 L35,78 Z M224,78 L224,83 L38,83 L38,78 L224,78 Z M245,78 C245.552285,78 246,78.4477153 246,79 L246,82 C246,82.5522847 245.552285,83 245,83 L230,83 L230,78 L245,78 Z M35,65 L35,70 L18,70 C17.4477153,70 17,69.5522847 17,69 L17,66 C17,65.4477153 17.4477153,65 18,65 L35,65 Z M224,65 L224,70 L38,70 L38,65 L224,65 Z M245,65 C245.552285,65 246,65.4477153 246,66 L246,69 C246,69.5522847 245.552285,70 245,70 L230,70 L230,65 L245,65 Z M35,52 L35,57 L18,57 C17.4477153,57 17,56.5522847 17,56 L17,53 C17,52.4477153 17.4477153,52 18,52 L35,52 Z M224,52 L224,57 L38,57 L38,52 L224,52 Z M245,52 C245.552285,52 246,52.4477153 246,53 L246,56 C246,56.5522847 245.552285,57 245,57 L230,57 L230,52 L245,52 Z M35,39 L35,44 L18,44 C17.4477153,44 17,43.5522847 17,43 L17,40 C17,39.4477153 17.4477153,39 18,39 L35,39 Z M224,39 L224,44 L38,44 L38,39 L224,39 Z M245,39 C245.552285,39 246,39.4477153 246,40 L246,43 C246,43.5522847 245.552285,44 245,44 L230,44 L230,39 L245,39 Z" id="Combined-Shape" fill="#EDEDED" fill-rule="nonzero"></path>
        </g>
    </g>
</svg>