<?xml version="1.0" encoding="UTF-8"?>
<svg width="237px" height="120px" viewBox="0 0 237 120" version="1.1" xmlns="http://www.w3.org/2000/svg" xmlns:xlink="http://www.w3.org/1999/xlink">
    <title>Artboard</title>
    <g id="Artboard" stroke="none" stroke-width="1" fill="none" fill-rule="evenodd">
        <g id="visa" transform="translate(4.000000, 28.000000)" fill-rule="nonzero">
            <polygon id="Path" fill="#3C58BF" points="77.6159941 62.7479952 88.3679932 2.26799983 105.167992 2.26799983 94.7519927 62.7479952"></polygon>
            <polygon id="Path" fill="#293688" points="77.6159941 62.7479952 91.391993 2.26799983 105.167992 2.26799983 94.7519927 62.7479952"></polygon>
            <path d="M155.567988,2.93999977 C152.207988,1.59599988 146.831989,0.251999981 140.111989,0.251999981 C123.311991,0.251999981 111.215991,8.65199934 111.215991,20.7479984 C111.215991,29.8199977 119.615991,34.5239974 126.33599,37.5479971 C133.05599,40.5719969 135.07199,42.5879967 135.07199,45.2759965 C135.07199,49.3079962 129.69599,51.3239961 124.99199,51.3239961 C118.271991,51.3239961 114.575991,50.3159961 108.863992,47.9639963 L106.511992,46.9559964 L104.159992,60.7319953 C108.191992,62.4119952 115.583991,64.0919951 123.311991,64.0919951 C141.119989,64.0919951 152.879988,55.6919957 152.879988,42.9239967 C152.879988,35.8679973 148.511989,30.4919977 138.431989,26.123998 C132.38399,23.0999982 128.68799,21.4199984 128.68799,18.3959986 C128.68799,15.7079988 131.71199,13.019999 138.431989,13.019999 C144.143989,13.019999 148.175989,14.0279989 151.199988,15.3719988 L152.879988,16.0439988 L155.567988,2.93999977 L155.567988,2.93999977 Z" id="Path" fill="#3C58BF"></path>
            <path d="M155.567988,2.93999977 C152.207988,1.59599988 146.831989,0.251999981 140.111989,0.251999981 C123.311991,0.251999981 114.239991,8.65199934 114.239991,20.7479984 C114.239991,29.8199977 119.615991,34.5239974 126.33599,37.5479971 C133.05599,40.5719969 135.07199,42.5879967 135.07199,45.2759965 C135.07199,49.3079962 129.69599,51.3239961 124.99199,51.3239961 C118.271991,51.3239961 114.575991,50.3159961 108.863992,47.9639963 L106.511992,46.9559964 L104.159992,60.7319953 C108.191992,62.4119952 115.583991,64.0919951 123.311991,64.0919951 C141.119989,64.0919951 152.879988,55.6919957 152.879988,42.9239967 C152.879988,35.8679973 148.511989,30.4919977 138.431989,26.123998 C132.38399,23.0999982 128.68799,21.4199984 128.68799,18.3959986 C128.68799,15.7079988 131.71199,13.019999 138.431989,13.019999 C144.143989,13.019999 148.175989,14.0279989 151.199988,15.3719988 L152.879988,16.0439988 L155.567988,2.93999977 L155.567988,2.93999977 Z" id="Path" fill="#293688"></path>
            <path d="M184.463986,2.26799983 C180.431986,2.26799983 177.407986,2.6039998 175.727987,6.63599949 L150.527988,62.7479952 L168.671987,62.7479952 L172.031987,52.667996 L193.535985,52.667996 L195.551985,62.7479952 L211.679984,62.7479952 L197.567985,2.26799983 L184.463986,2.26799983 Z M176.735986,42.5879967 C177.743986,39.563997 183.455986,24.7799981 183.455986,24.7799981 C183.455986,24.7799981 184.799986,21.0839984 185.807986,18.7319986 L186.815986,24.4439981 C186.815986,24.4439981 190.175985,39.563997 190.847985,42.9239967 L176.735986,42.9239967 L176.735986,42.5879967 Z" id="Shape" fill="#3C58BF"></path>
            <path d="M188.495986,2.26799983 C184.463986,2.26799983 181.439986,2.6039998 179.759986,6.63599949 L150.527988,62.7479952 L168.671987,62.7479952 L172.031987,52.667996 L193.535985,52.667996 L195.551985,62.7479952 L211.679984,62.7479952 L197.567985,2.26799983 L188.495986,2.26799983 Z M176.735986,42.5879967 C178.079986,39.227997 183.455986,24.7799981 183.455986,24.7799981 C183.455986,24.7799981 184.799986,21.0839984 185.807986,18.7319986 L186.815986,24.4439981 C186.815986,24.4439981 190.175985,39.563997 190.847985,42.9239967 L176.735986,42.9239967 L176.735986,42.5879967 Z" id="Shape" fill="#293688"></path>
            <path d="M46.7039964,44.6039998 L45.0239965,35.8679973 C41.9999968,25.787998 32.2559975,14.6999989 21.5039984,9.32399929 L36.6239972,63.0839952 L54.7679958,63.0839952 L81.9839937,2.6039998 L63.8399951,2.6039998 L46.7039964,44.6039998 Z" id="Path" fill="#3C58BF"></path>
            <path d="M46.7039964,44.6039998 L45.0239965,35.8679973 C41.9999968,25.787998 32.2559975,14.6999989 21.5039984,9.32399929 L36.6239972,63.0839952 L54.7679958,63.0839952 L81.9839937,2.6039998 L67.1999949,2.6039998 L46.7039964,44.6039998 Z" id="Path" fill="#293688"></path>
            <path d="M0,2.26799983 L3.02399977,2.93999977 C24.5279981,7.97999939 39.311997,20.7479984 45.0239965,35.8679973 L38.975997,7.30799944 C37.9679971,3.27599975 34.9439973,2.26799983 31.2479976,2.26799983 L0,2.26799983 L0,2.26799983 Z" id="Path" fill="#FFBC00"></path>
            <path d="M0,2.26799983 L0,2.26799983 C21.5039984,7.30799944 39.311997,20.4119984 45.0239965,35.5319973 L39.311997,11.6759991 C38.3039971,7.64399941 34.9439973,5.29199959 31.2479976,5.29199959 L0,2.26799983 Z" id="Path" fill="#F7981D"></path>
            <path d="M0,2.26799983 L0,2.26799983 C21.5039984,7.30799944 39.311997,20.4119984 45.0239965,35.5319973 L40.9919969,22.4279983 C39.9839969,18.3959986 38.639997,14.3639989 33.9359974,12.683999 L0,2.26799983 Z" id="Path" fill="#ED7C00"></path>
            <g id="Group" transform="translate(21.839998, 8.819999)" fill="#051244">
                <path d="M41.6639968,33.7679974 L30.2399977,22.3439983 L24.8639981,35.1119973 L23.5199982,26.711998 C20.4959984,16.6319987 10.7519992,5.54399958 0,0.167999987 L15.1199988,53.9279959 L33.2639975,53.9279959 L41.6639968,33.7679974 Z" id="Path"></path>
                <polygon id="Path" points="72.9119944 53.9279959 58.4639955 39.143997 55.7759957 53.9279959"></polygon>
                <path d="M111.551991,33.0959975 L111.551991,33.0959975 C112.895991,34.4399974 113.567991,35.4479973 113.231991,36.7919972 C113.231991,40.8239969 107.855992,42.8399967 103.151992,42.8399967 C96.4319926,42.8399967 92.7359929,41.8319968 87.0239933,39.479997 L84.6719935,38.4719971 L82.3199937,52.247996 C86.3519934,53.9279959 93.7439928,55.6079957 101.471992,55.6079957 C112.223991,55.6079957 120.959991,52.583996 125.99999,47.2079964 L111.551991,33.0959975 Z" id="Path"></path>
                <path d="M131.03999,53.9279959 L146.831989,53.9279959 L150.191988,43.8479966 L171.695987,43.8479966 L173.711987,53.9279959 L189.839985,53.9279959 L184.127986,29.3999977 L163.967987,9.91199924 L164.975987,15.2879988 C164.975987,15.2879988 168.335987,30.4079977 169.007987,33.7679974 L154.895988,33.7679974 C156.239988,30.4079977 161.615988,15.9599988 161.615988,15.9599988 C161.615988,15.9599988 162.959988,12.2639991 163.967987,9.91199924" id="Path"></path>
            </g>
        </g>
    </g>
</svg>