<?xml version="1.0" encoding="UTF-8"?>
<svg width="86px" height="86px" viewBox="0 0 86 86" version="1.1" xmlns="http://www.w3.org/2000/svg" xmlns:xlink="http://www.w3.org/1999/xlink">
    <title>wire-transfer</title>
    <g id="Page-1" stroke="none" stroke-width="1" fill="none" fill-rule="evenodd">
        <g id="wire-transfer" fill-rule="nonzero">
            <circle id="Oval" fill="#FFFFFF" cx="43" cy="43" r="43"></circle>
            <g id="money" transform="translate(21.000000, 19.000000)" fill="#E64E60">
                <path d="M25.7641996,38.7491993 C27.5267995,38.7491993 27.9971995,39.9027993 28.0055995,40.6055993 L28.0055995,40.6055993 L26.8589995,40.6055993 C26.8211995,40.3535993 26.7287995,39.7417993 25.6787996,39.7417993 C25.2265996,39.7417993 24.6777996,39.9083993 24.6777996,40.4305993 C24.6777996,40.8785993 25.0487996,40.9751993 25.2895996,41.0297993 L25.2895996,41.0297993 L26.6867995,41.3741993 C27.4749995,41.5659993 28.1931995,41.8879993 28.1945995,42.9197993 C28.1945995,44.6473992 26.4319995,44.7999992 25.9307996,44.7999992 C23.8335996,44.7999992 23.4751996,43.5917993 23.4751996,42.8805993 L23.4751996,42.8805993 L24.6203996,42.8805993 C24.6287996,43.1983993 24.7897996,43.8073993 25.8397996,43.8073993 C26.4039996,43.8073993 27.0381995,43.6743993 27.0381995,43.0639993 C27.0381995,42.6159993 26.6083995,42.4983993 25.9965996,42.3527993 L25.9965996,42.3527993 L25.3833996,42.2071993 L25.3833996,42.2071993 L25.1313859,42.1478071 C24.2985384,41.945191 23.5591996,41.669472 23.5591996,40.5201993 C23.5591996,39.8803993 23.9007996,38.7491993 25.7641996,38.7491993 Z M33.1981994,38.8975993 L33.1981994,39.9153993 L30.3113995,39.9153993 L30.3113995,41.2117993 L32.8383994,41.2117993 L32.8383994,42.2295993 L30.3113995,42.2295993 L30.3113995,44.6473992 L29.1115995,44.6473992 L29.1101995,38.8975993 L33.1981994,38.8975993 Z M19.1925997,38.9003993 L21.4759996,42.9029993 L21.4899996,42.9029993 L21.4899996,38.9003993 L22.6113996,38.9003993 L22.6113996,44.6459992 L21.4087996,44.6459992 L19.0651997,40.5495993 L19.0483997,40.5495993 L19.0483997,44.6459992 L17.9297997,44.6459992 L17.9297997,38.9003993 L19.1925997,38.9003993 Z M15.1885997,38.9003993 L17.2115997,44.6459992 L15.9067997,44.6459992 L15.5371997,43.4615993 L13.4175998,43.4615993 L13.0185998,44.6459992 L11.7529998,44.6459992 L13.8011998,38.9003993 L15.1885997,38.9003993 Z M5.8603999,38.9003993 L5.8603999,39.9167993 L4.12299993,39.9167993 L4.12299993,44.6445992 L2.92599995,44.6445992 L2.92599995,39.9167993 L1.18999998,39.9167993 L1.18859998,38.9003993 L5.8603999,38.9003993 Z M38.2311993,38.8989993 L38.2311993,39.9153993 L35.1819994,39.9153993 L35.1819994,41.1235993 L37.9819994,41.1235993 L37.9819994,42.1413993 L35.1819994,42.1413993 L35.1819994,43.6253993 L38.3669993,43.6253993 L38.3669993,44.6431992 L34.0059994,44.6431992 L34.0059994,38.8989993 L38.2311993,38.8989993 Z M9.48359984,38.8975993 C11.0123998,38.8975993 11.2909998,40.0287993 11.2909998,40.5215993 C11.2909998,41.1557993 10.9703998,41.6975993 10.4019998,41.8921993 C10.8751998,42.0979993 11.1313998,42.2729993 11.1313998,43.3467993 C11.1327998,44.1909992 11.1327998,44.3981992 11.3875998,44.4919992 L11.3875998,44.4919992 L11.3875998,44.6417992 L10.0589998,44.6417992 C9.97919983,44.3715992 9.93299983,44.0761992 9.93299983,43.4825993 C9.93299983,42.6971993 9.88399983,42.3947993 8.99499985,42.3947993 L8.99499985,42.3947993 L7.75599987,42.3947993 L7.75599987,44.6417992 L6.57719989,44.6417992 L6.57719989,38.8975993 Z M42.2505993,38.8975993 C43.7793993,38.8975993 44.0607992,40.0287993 44.0607992,40.5215993 C44.0607992,41.1557993 43.7387993,41.6975993 43.1689993,41.8921993 C43.6393993,42.0979993 43.8983993,42.2729993 43.8983993,43.3467993 C43.8997993,44.1909992 43.8997993,44.3981992 44.1545992,44.4919992 L44.1545992,44.4919992 L44.1545992,44.6417992 L42.8287993,44.6417992 C42.7489993,44.3715992 42.7027993,44.0761992 42.7027993,43.4825993 C42.7027993,42.6971993 42.6509993,42.3947993 41.7647993,42.3947993 L41.7647993,42.3947993 L40.5257993,42.3947993 L40.5257993,44.6417992 L39.3469993,44.6417992 L39.3469993,38.8975993 Z M14.4871998,40.1981993 L14.4773998,40.1981993 L13.7395998,42.4703993 L15.2039997,42.4703993 L14.4871998,40.1981993 Z M9.25119984,39.8915993 L7.75599987,39.8915993 L7.75599987,41.4315993 L9.16159984,41.4315993 C9.78739983,41.4315993 10.0911998,41.2131993 10.0911998,40.6433993 C10.0911998,40.3395993 9.95399983,39.8915993 9.25119984,39.8915993 L9.25119984,39.8915993 Z M42.0181993,39.8915993 L40.5257993,39.8915993 L40.5257993,41.4315993 L41.9313993,41.4315993 C42.5571993,41.4315993 42.8609993,41.2131993 42.8609993,40.6433993 C42.8609993,40.3395993 42.7237993,39.8915993 42.0181993,39.8915993 L42.0181993,39.8915993 Z M43.2361993,25.2335996 L43.2361993,27.3685995 L36.8311994,27.3685995 L36.8311994,29.9039995 L42.7139993,29.9039995 L42.7139993,32.0375995 L36.8311994,32.0375995 L36.8311994,35.1651994 L43.5203993,35.1651994 L43.5203993,37.3071994 L34.3559994,37.3071994 L34.3559994,25.2335996 L43.2361993,25.2335996 Z M28.3121995,25.2293996 C31.5251995,25.2293996 32.1159995,27.5981995 32.1159995,28.6425995 C32.1159995,29.9683995 31.4439995,31.1149995 30.2483995,31.5167995 C31.2409995,31.9535995 31.7771995,32.3259994 31.7771995,34.5799994 C31.7771995,36.3453994 31.7771995,36.7835994 32.3161994,36.9851994 L32.3161994,36.9851994 L32.3161994,37.3057994 L29.5273995,37.3057994 C29.3579995,36.7303994 29.2557995,36.1059994 29.2571995,34.8641994 C29.2571995,33.2135994 29.1563995,32.5737994 27.2915995,32.5737994 L27.2915995,32.5737994 L24.6861996,32.5737994 L24.6861996,37.3029994 L22.2109996,37.3029994 L22.2109996,25.2293996 Z M3.33339994,25.2307996 C4.61770181,30.7166863 4.94192964,32.2281559 5.13997424,33.372327 L5.1662765,33.5264124 C5.17483543,33.5772412 5.18321196,33.6276499 5.1914844,33.6779771 L5.22827218,33.9050441 C5.2364086,33.9558895 5.2445584,34.0071617 5.25279991,34.0591994 L5.25279991,34.0591994 L5.28499991,34.0591994 L5.28499991,34.0591994 L5.32417825,33.8311621 C5.52935423,32.6306674 5.7635759,31.1883315 6.96639988,25.2307996 L6.96639988,25.2307996 L9.64039984,25.2307996 C10.7587093,30.4817504 11.0664202,31.973353 11.2790476,33.1438413 L11.3088534,33.3092408 C11.313739,33.336567 11.3185899,33.363804 11.323416,33.3909982 L11.3521505,33.554021 C11.3569155,33.5812296 11.3616748,33.6084882 11.3664382,33.6358431 L11.3951445,33.8015012 C11.4095991,33.8852799 11.424264,33.9707617 11.4393998,34.0591994 L11.4393998,34.0591994 L11.4729998,34.0591994 C11.4804665,34.0167846 11.4879312,33.9745081 11.4954635,33.9320804 L11.5183327,33.804055 C11.7117565,32.7285772 11.9908442,31.3778365 13.4413998,25.2307996 L13.4413998,25.2307996 L15.9991997,25.2307996 L12.5999998,37.3043994 L10.1793998,37.3043994 C9.21766348,32.7293904 8.86700687,30.9857453 8.57190297,29.3597793 L8.52028941,29.0735134 C8.4519387,28.6919813 8.3848544,28.3081268 8.31179986,27.8865995 L8.31179986,27.8865995 L8.27959986,27.8865995 C8.12113178,28.8743442 7.99409873,29.6002147 7.80054941,30.587625 L7.74039117,30.8922176 C7.48060105,32.1984081 7.10157435,33.9950377 6.41199989,37.3043994 L6.41199989,37.3043994 L4.05859993,37.3043994 L0.645399989,25.2307996 Z M19.8547997,25.2279996 L19.8547997,37.3015994 L17.3333997,37.3015994 L17.3333997,25.2279996 L19.8547997,25.2279996 Z M27.8277995,27.3139995 L24.6861996,27.3139995 L24.6861996,30.5437995 L27.6415995,30.5437995 C28.9533995,30.5423995 29.5931995,30.0873995 29.5945995,28.8945995 C29.5945995,28.2547995 29.3103995,27.3139995 27.8277995,27.3139995 L27.8277995,27.3139995 Z M31.2213995,7.12599988 C31.2213995,7.12599988 31.2395995,7.41579987 31.2689995,7.92259987 C31.2871995,8.17879986 31.2997995,8.49239986 31.3249995,8.84939985 C31.3543995,9.21059984 31.2773995,9.60959984 31.2479995,10.0575998 C31.2185995,10.5055998 31.1681995,10.9941998 31.0155995,11.4925998 C30.8867995,11.9965998 30.7775995,12.5495998 30.5199995,13.0675998 C30.4079995,13.3363998 30.2903995,13.6079998 30.1741995,13.8837998 C30.0453995,14.1567998 29.8689995,14.4045998 29.7149995,14.6705998 C29.4125995,15.2165997 29.0177995,15.7009997 28.6103995,16.1867997 C28.2169995,16.6907997 27.7269995,17.0855997 27.2817995,17.5321997 C26.7875995,17.9031997 26.3213996,18.3301997 25.8159996,18.6339997 C25.3217996,18.9671997 24.8317996,19.2681997 24.3473996,19.5173997 C23.8713996,19.7931997 23.3967996,19.9863997 22.9641996,20.1935997 C22.2935996,20.4777997 21.6999996,20.6989996 21.2085996,20.8585996 C21.4311996,21.3625996 21.6243996,21.8875996 21.7727996,22.4489996 C21.9239996,23.0257996 22.0611996,23.6179996 22.0947996,24.2927996 C21.4367996,24.1331996 20.8837996,23.8839996 20.3475997,23.6221996 C19.8113997,23.3575996 19.3185997,23.0593996 18.8579997,22.7359996 C17.9311997,22.0933996 17.1331997,21.3415996 16.4051997,20.5337997 C15.8535997,19.9205997 15.7793997,19.0455997 16.1573997,18.3623997 L16.1573997,18.3623997 L16.2357997,18.2265997 C16.8489997,17.1275997 17.5853997,16.1013997 18.4883997,15.1759997 C18.9349997,14.7111997 19.4291997,14.2757998 19.9779997,13.8711998 C20.2593997,13.6709998 20.5477997,13.4777998 20.8473996,13.2915998 C21.1567996,13.1109998 21.4857996,12.9415998 21.8455996,12.7917998 C21.8819996,13.1781998 21.8889996,13.5491998 21.8693996,13.9061998 C21.8455996,14.2589998 21.8105996,14.6047998 21.7685996,14.9463997 C21.6677996,15.6197997 21.5151996,16.2609997 21.3121996,16.8741997 C21.2897996,16.9399997 21.2631996,17.0015997 21.2421996,17.0673997 C21.4563996,17.0351997 21.6803996,16.9987997 21.9225996,16.9553997 C22.3019996,16.8629997 22.7317996,16.7957997 23.1601996,16.6557997 C23.6039996,16.5423997 24.0547996,16.3869997 24.5111996,16.2049997 C24.9899996,16.0481997 25.4155996,15.7877997 25.9013996,15.5763997 C26.3213996,15.2963997 26.8225995,15.0625997 27.2201995,14.7237997 C27.6415995,14.4017998 28.0657995,14.0741998 28.4115995,13.6737998 C28.5907995,13.4805998 28.7951995,13.3027998 28.9533995,13.0983998 C29.1017995,12.8855998 29.2515995,12.6755998 29.3971995,12.4697998 C29.7261995,12.0679998 29.9193995,11.6115998 30.1363995,11.1859998 C30.3715995,10.7659998 30.5143995,10.3347998 30.6319995,9.92879983 C30.7453995,9.52279984 30.9119995,9.15459984 30.9525995,8.81019985 C31.0085995,8.46439986 31.0603995,8.16339986 31.0953995,7.91559987 C31.1779995,7.41299987 31.2213995,7.12599988 31.2213995,7.12599988 Z M22.7079996,3.05533376e-13 C23.3589996,0.181999997 23.9063996,0.446599992 24.4369996,0.722399988 C24.9647996,1.00239998 25.4477996,1.31459998 25.8985996,1.65339997 C26.8057995,2.32399996 27.5813995,3.09959995 28.2855995,3.92839993 C28.8189995,4.55699992 28.8651995,5.43479991 28.4675995,6.1053999 L28.4675995,6.1053999 L28.3863995,6.23979989 C27.7381995,7.32059988 26.9695995,8.32299986 26.0427996,9.22179984 C25.5807996,9.67399984 25.0739996,10.0953998 24.5111996,10.4831998 C24.2269996,10.6721998 23.9287996,10.8569998 23.6235996,11.0347998 C23.3071996,11.2069998 22.9753996,11.3665998 22.6113996,11.5051998 C22.5861996,11.1159998 22.5917996,10.7463998 22.6197996,10.3893998 C22.6547996,10.0379998 22.7009996,9.69219983 22.7541996,9.35199984 C22.8759996,8.68139985 23.0467996,8.04439986 23.2679996,7.43819987 C23.2945996,7.37379987 23.3183996,7.31219988 23.3435996,7.24779988 C23.1307996,7.27439988 22.9039996,7.30379988 22.6603996,7.33879988 C22.2795996,7.41999987 21.8455996,7.47459987 21.4129996,7.60199987 C20.9677996,7.70279987 20.5127997,7.84419987 20.0493997,8.01219986 C19.5649997,8.15359986 19.1309997,8.40139986 18.6395997,8.59879985 C18.2069997,8.86619985 17.7057997,9.08599985 17.2955997,9.41219984 C16.8657997,9.72159983 16.4317997,10.0365998 16.0775997,10.4243998 C15.8955997,10.6119998 15.6869997,10.7827998 15.5231997,10.9843998 C15.3663997,11.1915998 15.2109997,11.3973998 15.0583997,11.5975998 C14.7181997,11.9895998 14.5109998,12.4403998 14.2813998,12.8603998 C14.0279998,13.2719998 13.8767998,13.6989998 13.7451998,14.1021998 C13.6205998,14.5039998 13.4441998,14.8679997 13.3909998,15.2109997 C13.3265998,15.5553997 13.2691998,15.8535997 13.2229998,16.0999997 C13.1291998,16.5997997 13.0759998,16.8867997 13.0759998,16.8867997 C13.0759998,16.8867997 13.0703998,16.5955997 13.0535998,16.0887997 C13.0465998,15.8311997 13.0367998,15.5189997 13.0255998,15.1605997 C13.0031998,14.7979997 13.0969998,14.4017998 13.1361998,13.9551998 C13.1809998,13.5071998 13.2425998,13.0213998 13.4105998,12.5271998 C13.5547998,12.0273998 13.6779998,11.4785998 13.9509998,10.9689998 C14.0727998,10.7057998 14.1959998,10.4355998 14.3233998,10.1639998 C14.4591998,9.89659983 14.6439998,9.65439984 14.8063997,9.39259984 C15.1241997,8.85499985 15.5357997,8.38319986 15.9557997,7.90999987 C16.3631997,7.41579987 16.8657997,7.03779988 17.3249997,6.60379989 C17.8275997,6.24819989 18.3063997,5.8365999 18.8201997,5.54679991 C19.3241997,5.22759991 19.8239997,4.94199992 20.3153997,4.70679992 C20.7983996,4.44499992 21.2785996,4.26719993 21.7181996,4.07259993 C22.3943996,3.80939994 22.9963996,3.60499994 23.4933996,3.45939994 C23.2861996,2.94979995 23.1083996,2.41919996 22.9753996,1.85359997 C22.8395996,1.27119998 22.7205996,0.676199988 22.7079996,3.05533376e-13 Z" id="Combined-Shape"></path>
            </g>
        </g>
    </g>
</svg>