<?xml version="1.0" encoding="UTF-8"?>
<svg width="49px" height="50px" viewBox="0 0 49 50" version="1.1" xmlns="http://www.w3.org/2000/svg" xmlns:xlink="http://www.w3.org/1999/xlink">
    <title>wire-payment</title>
    <g id="Page-1" stroke="none" stroke-width="1" fill="none" fill-rule="evenodd">
        <g id="wire-payment" fill-rule="nonzero">
            <g id="bank-(3)" fill="#E64E60">
                <path d="M42.4800017,38.8800015 L41.7600017,38.8800015 L41.7600017,36.7200015 C41.7600017,36.3223564 41.4376467,36.0000014 41.0400016,36.0000014 L39.6000016,36.0000014 L39.6000016,33.8400013 C39.6000016,33.4423563 39.2776466,33.1200013 38.8800015,33.1200013 L38.8800015,18.7200007 C39.2776466,18.7200007 39.6000016,18.3976458 39.6000016,18.0000007 L39.6000016,15.8400006 L41.0400016,15.8400006 C41.4376467,15.8400006 41.7600017,15.5176456 41.7600017,15.1200006 L41.7600017,12.9600005 L42.4800017,12.9600005 C42.8081701,12.9596324 43.0945683,12.7374033 43.176432,12.4196094 C43.2582957,12.1018155 43.1149094,11.768874 42.8277617,11.6100005 L21.9477609,0.0900000036 C21.7315081,-0.0302287092 21.4684937,-0.0302287092 21.2522408,0.0900000036 L0.372240015,11.6100005 C0.0850922829,11.768874 -0.0582939953,12.1018155 0.0235697136,12.4196094 C0.105433423,12.7374033 0.391831635,12.9596324 0.720000029,12.9600005 L1.44000006,12.9600005 L1.44000006,15.1200006 C1.44000006,15.5176456 1.76235505,15.8400006 2.16000009,15.8400006 L3.60000014,15.8400006 L3.60000014,18.0000007 C3.60000014,18.3976458 3.92235514,18.7200007 4.32000017,18.7200007 L4.32000017,33.1200013 C3.92235514,33.1200013 3.60000014,33.4423563 3.60000014,33.8400013 L3.60000014,36.0000014 L2.16000009,36.0000014 C1.76235505,36.0000014 1.44000006,36.3223564 1.44000006,36.7200015 L1.44000006,38.8800015 L0.720000029,38.8800015 C0.322354993,38.8800015 0,39.2023565 0,39.6000016 L0,42.4800017 C0,42.8776467 0.322354993,43.2000017 0.720000029,43.2000017 L42.4800017,43.2000017 C42.8776467,43.2000017 43.2000017,42.8776467 43.2000017,42.4800017 L43.2000017,39.6000016 C43.2000017,39.2023565 42.8776467,38.8800015 42.4800017,38.8800015 L42.4800017,38.8800015 Z M40.3200016,38.8800015 L29.5200012,38.8800015 L29.5200012,37.4400015 L40.3200016,37.4400015 L40.3200016,38.8800015 Z M20.8800008,40.3200016 L20.8800008,41.7600017 L7.92000031,41.7600017 L7.92000031,40.3200016 L20.8800008,40.3200016 Z M10.0800004,33.1200013 L10.0800004,18.7200007 C10.4776454,18.7200007 10.8000004,18.3976458 10.8000004,18.0000007 L10.8000004,15.8400006 L18.0000007,15.8400006 L18.0000007,18.0000007 C18.0000007,18.3976458 18.3223557,18.7200007 18.7200007,18.7200007 L18.7200007,33.1200013 C18.3223557,33.1200013 18.0000007,33.4423563 18.0000007,33.8400006 L18.0000007,36.0000014 L10.8000004,36.0000014 L10.8000004,33.8400006 C10.8000004,33.4423563 10.4776454,33.1200013 10.0800004,33.1200013 Z M33.1200013,18.7200007 L33.1200013,33.1200013 C32.7223563,33.1200013 32.4000013,33.4423563 32.4000013,33.8400006 L32.4000013,36.0000014 L25.200001,36.0000014 L25.200001,33.8400006 C25.200001,33.4423563 24.877646,33.1200013 24.480001,33.1200013 L24.480001,18.7200007 C24.877646,18.7200007 25.200001,18.3976458 25.200001,18.0000007 L25.200001,15.8400006 L32.4000013,15.8400006 L32.4000013,18.0000007 C32.4000013,18.3976458 32.7223563,18.7200007 33.1200013,18.7200007 Z M23.0400009,18.7200007 L23.0400009,33.1200013 L20.1600008,33.1200013 L20.1600008,18.7200007 L23.0400009,18.7200007 Z M19.4400008,34.5600014 L23.7600009,34.5600014 L23.7600009,36.0000014 L19.4400008,36.0000014 L19.4400008,34.5600014 Z M23.7600009,17.2800007 L19.4400008,17.2800007 L19.4400008,15.8400006 L23.7600009,15.8400006 L23.7600009,17.2800007 Z M28.0800011,37.4400015 L28.0800011,38.8800015 L15.1200006,38.8800015 L15.1200006,37.4400015 L28.0800011,37.4400015 Z M22.3200009,40.3200016 L35.2800014,40.3200016 L35.2800014,41.7600017 L22.3200009,41.7600017 L22.3200009,40.3200016 Z M33.8400013,36.0000014 L33.8400013,34.5600014 L38.1600015,34.5600014 L38.1600015,36.0000014 L33.8400013,36.0000014 Z M37.4400015,33.1200013 L34.5600014,33.1200013 L34.5600014,18.7200007 L37.4400015,18.7200007 L37.4400015,33.1200013 Z M38.1600015,17.2800007 L33.8400013,17.2800007 L33.8400013,15.8400006 L38.1600015,15.8400006 L38.1600015,17.2800007 Z M21.6000009,1.54224006 L39.6842416,11.5200005 L34.5600014,11.5200005 L34.5600014,10.0800004 L33.1200013,10.0800004 L33.1200013,11.5200005 L31.6800013,11.5200005 L31.6800013,10.0800004 L30.2400012,10.0800004 L30.2400012,11.5200005 L28.8000011,11.5200005 L28.8000011,10.0800004 L27.3600011,10.0800004 L27.3600011,11.5200005 L25.920001,11.5200005 L25.920001,10.0800004 L24.480001,10.0800004 L24.480001,11.5200005 L18.7200007,11.5200005 L18.7200007,10.0800004 L17.2800007,10.0800004 L17.2800007,11.5200005 L15.8400006,11.5200005 L15.8400006,10.0800004 L14.4000006,10.0800004 L14.4000006,11.5200005 L12.9600005,11.5200005 L12.9600005,10.0800004 L11.5200005,10.0800004 L11.5200005,11.5200005 L10.0800004,11.5200005 L10.0800004,10.0800004 L8.64000034,10.0800004 L8.64000034,11.5200005 L3.51576014,11.5200005 L21.6000009,1.54224006 Z M2.88000011,12.9600005 L40.3200016,12.9600005 L40.3200016,14.4000006 L2.88000011,14.4000006 L2.88000011,12.9600005 Z M9.36000037,15.8400006 L9.36000037,17.2800007 L5.0400002,17.2800007 L5.0400002,15.8400006 L9.36000037,15.8400006 Z M5.76000023,18.7200007 L8.64000034,18.7200007 L8.64000034,33.1200013 L5.76000023,33.1200013 L5.76000023,18.7200007 Z M5.0400002,34.5600014 L9.36000037,34.5600014 L9.36000037,36.0000014 L5.0400002,36.0000014 L5.0400002,34.5600014 Z M2.88000011,37.4400015 L13.6800005,37.4400015 L13.6800005,38.8800015 L2.88000011,38.8800015 L2.88000011,37.4400015 Z M1.44000006,40.3200016 L6.48000026,40.3200016 L6.48000026,41.7600017 L1.44000006,41.7600017 L1.44000006,40.3200016 Z M41.7600017,41.7600017 L36.7200015,41.7600017 L36.7200015,40.3200016 L41.7600017,40.3200016 L41.7600017,41.7600017 Z" id="Shape"></path>
                <path d="M21.6000009,10.0800004 C23.190581,10.0800004 24.480001,8.79058043 24.480001,7.20000029 C24.480001,5.60942014 23.190581,4.32000017 21.6000009,4.32000017 C20.0094207,4.32000017 18.7200007,5.60942014 18.7200007,7.20000029 C18.7200007,8.79058043 20.0094207,10.0800004 21.6000009,10.0800004 Z M21.6000009,5.76000023 C22.3952909,5.76000023 23.0400009,6.40471021 23.0400009,7.20000029 C23.0400009,7.99529036 22.3952909,8.64000034 21.6000009,8.64000034 C20.8047108,8.64000034 20.1600008,7.99529036 20.1600008,7.20000029 C20.1600008,6.40471021 20.8047108,5.76000023 21.6000009,5.76000023 Z" id="Shape"></path>
            </g>
            <rect id="Rectangle" fill="#FFFFFF" x="20" y="27" width="29" height="23" rx="3"></rect>
            <g id="Group-6" transform="translate(23.000000, 28.000000)" fill="#E64E60" stroke="#E64E60" stroke-width="0.899999976">
                <path d="M20.7360195,12.5033031 C20.7360195,10.2764912 21.8880193,9.64025921 21.8880193,12.5033031 C21.8880193,15.366347 19.5670637,17.6873027 16.7040198,17.6873027 L16.7040198,17.6873027 L1.96662885,17.6873027 L3.86332471,19.5839986 L3.04871677,20.3986065 L0.168716976,17.5186068 C0.0606896103,17.410585 7.10542736e-13,17.2640726 7.10542736e-13,17.1113028 C7.10542736e-13,16.958533 0.0606896103,16.8120206 0.168716976,16.7039988 L0.168716976,16.7039988 L3.04871677,13.823999 L3.86332471,14.638607 L1.96662885,16.5353028 L16.7040198,16.5353028 C18.9308318,16.5353028 20.7360195,14.7301151 20.7360195,12.5033031 Z M18.8393236,4.09272616e-12 L21.7195394,2.87999979 C21.8275668,2.98802159 21.8882564,3.13453394 21.8882564,3.28730377 C21.8882564,3.4400736 21.8275668,3.58658594 21.7195394,3.69460774 L21.7195394,3.69460774 L18.8395396,6.57460753 L18.0249317,5.75999959 L19.9216996,3.86330372 L5.18402062,3.86330372 C3.73365856,3.84829045 2.38699809,4.61344369 1.6574485,5.86705165 C0.927898905,7.1206596 0.927898905,8.66951527 1.6574485,9.92312323 C2.38699809,11.1767312 0.047343721,10.7396679 0.047343721,7.89508744 C0.047343721,5.05050701 2.33955872,2.73727088 5.18402062,2.71130381 L5.18402062,2.71130381 L19.9214836,2.71130381 L18.0247157,0.814607942 L18.8393236,4.09272616e-12 Z" id="Combined-Shape"></path>
            </g>
        </g>
    </g>
</svg>